<?xml version="1.0" encoding="utf-8"?>
<!-- Generator: Adobe Illustrator 16.0.0, SVG Export Plug-In . SVG Version: 6.00 Build 0)  -->
<!DOCTYPE svg PUBLIC "-//W3C//DTD SVG 1.1//EN" "http://www.w3.org/Graphics/SVG/1.1/DTD/svg11.dtd">
<svg version="1.1" id="Layer_1" xmlns="http://www.w3.org/2000/svg" xmlns:xlink="http://www.w3.org/1999/xlink" x="0px" y="0px"
	 width="60px" height="60px" viewBox="0 0 60 60" enable-background="new 0 0 60 60" xml:space="preserve">
<g>
	<path fill="none" stroke="#231F20" stroke-width="1.875" stroke-miterlimit="10" d="M52.797,39.789
		c3.882-9.049,2.129-19.939-5.26-27.328c-9.686-9.686-25.39-9.686-35.076,0c-9.685,9.686-9.686,25.389,0,35.076
		c9.686,9.686,25.391,9.688,35.077,0.002c1.271-1.271,2.374-2.645,3.312-4.094c0.051-0.08,0.152-0.238,0.152-0.238H40.823h-4.882
		H32.43h-2.594h-5.798h-9.205"/>
	<circle fill="none" stroke="#231F20" stroke-width="1.875" stroke-miterlimit="10" cx="31.969" cy="43.011" r="8.006"/>
	<circle fill="none" stroke="#231F20" stroke-width="1.875" stroke-miterlimit="10" cx="12.285" cy="42.993" r="2.676"/>
	<path fill="none" stroke="#231F20" stroke-width="1.875" stroke-miterlimit="10" d="M23.695,42.699L21.04,17.388h1.243
		c1.028,0,1.86-0.833,1.86-1.86c0-1.027-0.833-1.861-1.86-1.861h-5.745"/>
	<line fill="none" stroke="#231F20" stroke-width="1.875" stroke-miterlimit="10" x1="11.792" y1="40.41" x2="11.163" y2="34.416"/>
	<path fill="none" stroke="#231F20" stroke-width="1.875" stroke-miterlimit="10" d="M13.403,40.523l8.455-15.105h23.478v13.593
		c0,2.253-1.155,4.195-4.066,4.195"/>
	<line fill="none" stroke="#231F20" stroke-width="1.875" stroke-miterlimit="10" x1="9.192" y1="34.42" x2="13.187" y2="34.42"/>
</g>
</svg>
