
<svg width="46px" height="47px" viewBox="117 50 46 47" version="1.1" xmlns="http://www.w3.org/2000/svg" xmlns:xlink="http://www.w3.org/1999/xlink">
    <!-- Generator: Sketch 40.3 (33839) - http://www.bohemiancoding.com/sketch -->
    <desc>Created with Sketch.</desc>
    <defs></defs>
    <g id="Group" stroke="none" stroke-width="1" fill="none" fill-rule="evenodd" transform="translate(139.600000, 73.801877) scale(1, -1) translate(-139.600000, -73.801877) translate(117.100000, 51.300000)">
        <path d="M21.5427928,44.9924925 C17.3198198,44.7822823 13.4234234,43.5022523 9.97747748,41.1974474 C5.48423423,38.1869369 2.1996997,33.6223724 0.784534535,28.4234234 C-0.112612613,25.1238739 -0.243993994,21.5540541 0.412912913,18.1756757 C1.47147147,12.7252252 4.53453453,7.8490991 9.01276276,4.48198198 C12.4024024,1.93693694 16.4451952,0.409159159 20.6981982,0.0638138138 C22.027027,-0.045045045 23.9977477,-0.00375375375 25.2777778,0.157657658 C29.5457958,0.698198198 33.4872372,2.38738739 36.783033,5.09009009 C37.9129129,6.01726727 39.1253754,7.24474474 40.0713213,8.41591592 C40.289039,8.68618619 41.5840841,10.4129129 41.6403904,10.5067568 C41.6629129,10.5442943 38.5435435,10.5555556 26.1073574,10.5555556 L10.5442943,10.5555556 L10.5442943,9.63588589 L10.5442943,8.71621622 L24.2304805,8.70870871 L37.9166667,8.69744745 L37.3836336,8.14189189 C36.0735736,6.78303303 34.5945946,5.61936937 32.9354354,4.64339339 C32.2484985,4.23798799 30.9046547,3.58108108 30.1951952,3.29954955 C24.7184685,1.12987988 18.6561562,1.35885886 13.4159159,3.93018018 C7.6951952,6.73798799 3.56606607,12.042042 2.27102102,18.2432432 C1.95570571,19.7597598 1.85435435,20.7845345 1.85435435,22.5112613 C1.85435435,23.9226727 1.87687688,24.2905405 2.0457958,25.4504505 C2.60135135,29.3543544 4.23798799,32.9466967 6.83933934,35.9834835 C7.32732733,36.5578078 8.41216216,37.6426426 8.96771772,38.1231231 C11.5165165,40.3115616 14.4294294,41.8130631 17.6388889,42.5900901 C21.3813814,43.5022523 25.3791291,43.3370871 29.0127628,42.1246246 C31.5427928,41.2837838 33.7612613,40.0375375 35.8633634,38.2845345 C36.463964,37.7815315 37.8340841,36.4039039 38.3370871,35.7995495 C41.1336336,32.4286787 42.7177177,28.5923423 43.1118619,24.2567568 C43.1831832,23.4684685 43.1944444,21.737988 43.1306306,20.9534535 C42.9617117,18.8400901 42.4474474,16.6178679 41.7042042,14.7972973 C41.5990991,14.5382883 41.5127628,14.3093093 41.5127628,14.2905405 C41.5127628,14.2567568 43.0743243,13.5585586 43.1531532,13.5585586 C43.246997,13.5585586 44.0052553,15.716967 44.2867868,16.7905405 C44.7597598,18.5998498 44.9624625,20.1313814 44.9924925,22.1058559 C45.015015,23.460961 44.984985,24.1253754 44.8498498,25.2327327 C44.1253754,31.3025526 40.9271772,36.8130631 35.975976,40.5367868 C33.6636637,42.2747748 30.8183183,43.6261261 27.9804805,44.3355856 C26.8393393,44.6208709 25.6644144,44.8160661 24.4707207,44.9211712 C23.8250751,44.9774775 22.0945946,45.0187688 21.5427928,44.9924925 L21.5427928,44.9924925 Z" id="Shape" fill="#000000"></path>
        <path d="M19.4031532,39.0578078 C19.0803303,39.0352853 18.1606607,38.8926426 17.8716216,38.8250751 C15.9684685,38.3671171 14.3243243,37.454955 12.9654655,36.0998498 C11.4226727,34.5570571 10.4767267,32.6764264 10.1051051,30.4054054 C10.0112613,29.8310811 10.0112613,28.0818318 10.1051051,27.484985 C10.3228228,26.1411411 10.7282282,25.0112613 11.3175676,24.1141141 C11.9932432,23.0893393 14.6846847,19.2342342 18.216967,14.2342342 C19.0840841,13.0067568 19.8686186,11.8956456 19.9587087,11.7642643 C20.0487988,11.6366366 20.1351351,11.5315315 20.1463964,11.5315315 C20.1726727,11.5352853 21.6816817,13.6711712 24.4444444,17.6126126 L25.9572072,19.771021 L31.0773273,19.7822823 L36.2012012,19.7897898 L34.4181682,18.0067568 L32.6351351,16.2237237 L33.2845345,15.5780781 L33.9301802,14.9286787 L36.8205706,17.8190691 L39.710961,20.7094595 L36.8205706,23.5998498 L33.9301802,26.4902402 L33.2845345,25.8408408 L32.6351351,25.1951952 L34.4181682,23.4121622 L36.2012012,21.6291291 L31.722973,21.6291291 L27.2447447,21.6291291 L27.6013514,22.1471471 C28.490991,23.4271772 29.3205706,24.6921922 29.4406907,24.9436937 C29.710961,25.5105105 30.0262763,26.5653153 30.1539039,27.3348348 C30.4241742,28.9527027 30.2627628,30.7357357 29.7072072,32.3235736 C28.6111111,35.4617117 25.9384384,37.9166667 22.713964,38.75 C21.6591592,39.0202703 20.4354354,39.1366366 19.4031532,39.0578078 L19.4031532,39.0578078 Z M21.1036036,37.1884384 C23.5397898,36.9031532 25.6906907,35.5855856 27.0683183,33.5322823 C27.4061562,33.0255255 27.8453453,32.1283784 28.033033,31.5578078 C28.6223724,29.7672673 28.5848348,27.8566066 27.9316817,26.0848348 C27.7815315,25.6831832 27.3273273,24.9774775 25.746997,22.6876877 L25.015015,21.6291291 L22.5675676,21.6291291 L20.1163664,21.6291291 L20.1163664,20.7094595 L20.1163664,19.7897898 L21.9181682,19.7822823 L23.71997,19.771021 L23.1644144,18.9827327 C22.8603604,18.5510511 22.0570571,17.4061562 21.3776276,16.4376877 L20.1463964,14.6846847 L19.8085586,15.1576577 C19.0202703,16.2725225 16.1073574,20.4129129 15.1539039,21.7792793 C12.5675676,25.487988 12.5600601,25.4954955 12.2747748,26.3288288 C11.9744745,27.2072072 11.8468468,27.9917417 11.8468468,28.9677177 C11.8506006,29.9136637 11.966967,30.6569069 12.2597598,31.5503003 C12.454955,32.1433934 12.8753754,33.0142643 13.1981982,33.4984985 C14.253003,35.0713213 15.7545045,36.2312312 17.4924925,36.8093093 C18.6599099,37.1996997 19.9024024,37.3273273 21.1036036,37.1884384 L21.1036036,37.1884384 Z" id="Shape" fill="#000000"></path>
        <path d="M19.4144144,33.1381381 C18.0367868,32.8753754 16.8618619,31.9256757 16.3288288,30.6381381 C15.8183183,29.4069069 15.9534535,27.9129129 16.6816817,26.8093093 C16.9069069,26.4677177 17.3460961,26.0022523 17.6764264,25.7507508 C18.018018,25.4917417 18.6749249,25.1764264 19.1216216,25.0563063 C19.4594595,24.9662162 19.5608108,24.954955 20.1539039,24.954955 C20.746997,24.954955 20.8483483,24.9662162 21.1861862,25.0563063 C23.0780781,25.5668168 24.3806306,27.3460961 24.2717718,29.268018 C24.1666667,31.0923423 22.9316817,32.6051051 21.1749249,33.0668168 C20.7244745,33.1831832 19.8536036,33.2207207 19.4144144,33.1381381 L19.4144144,33.1381381 Z M20.6981982,31.295045 C21.7154655,31.036036 22.4436937,30.1051051 22.4436937,29.0615616 C22.4436937,28.2057057 21.9481982,27.3986486 21.1899399,27.0195195 C20.8370871,26.8430931 20.5442943,26.7717718 20.1651652,26.7717718 C19.7522523,26.7717718 19.5195195,26.8243243 19.1403904,27.0045045 C18.5623123,27.2822823 18.0893393,27.8566066 17.9166667,28.490991 C17.8828829,28.6111111 17.8603604,28.8588589 17.8603604,29.0615616 C17.8603604,29.2642643 17.8828829,29.512012 17.9166667,29.6321321 C18.1306306,30.4241742 18.8213213,31.1073574 19.5983483,31.2987988 C19.8761261,31.3626126 20.4316817,31.3626126 20.6981982,31.295045 L20.6981982,31.295045 Z" id="Shape" fill="#000000"></path>
    </g>
</svg>