
<svg width="46px" height="47px" viewBox="92 78 46 47" version="1.1" xmlns="http://www.w3.org/2000/svg" xmlns:xlink="http://www.w3.org/1999/xlink">
    <!-- Generator: Sketch 40.3 (33839) - http://www.bohemiancoding.com/sketch -->
    <desc>Created with Sketch.</desc>
    <defs></defs>
    <g id="Group" stroke="none" stroke-width="1" fill="none" fill-rule="evenodd" transform="translate(115.000000, 101.612150) scale(1, -1) translate(-115.000000, -101.612150) translate(92.500000, 79.100000)">
        <path d="M20.9589596,44.9837998 C16.5768158,44.6800468 12.4376744,43.1329313 8.93438934,40.4923049 C4.33354334,37.0254703 1.23121231,31.9224192 0.287552876,26.2766628 C0.040500405,24.802448 0,24.2921429 0,22.5303753 C0,20.8779588 0.024300243,20.5175052 0.206552066,19.2336423 C0.534605346,16.9210692 1.24741247,14.6489965 2.31257313,12.5065251 C3.14283143,10.8419584 4.0500405,9.44874449 5.24480245,8.00693007 C5.78345783,7.35892359 7.34677347,5.799658 7.99882999,5.25695257 C11.7491675,2.14247142 16.1637116,0.368553686 21.0197102,0.0283502835 C21.7892179,-0.024300243 23.8628386,-1.7986914e-16 24.5634956,0.072900729 C27.3701737,0.356403564 29.8730987,1.05301053 32.3193232,2.23562236 C34.498245,3.28863289 36.4260643,4.63729637 38.1635316,6.32616326 C39.2246422,7.35892359 39.8726487,8.1203312 41.1443614,9.82539825 L41.695167,10.5625056 L26.1227612,10.5625056 L10.5503555,10.5625056 L10.5503555,9.65124651 L10.5503555,8.7399874 L24.2192422,8.7399874 C34.5711457,8.7399874 37.8881289,8.72783728 37.8881289,8.69138691 C37.8881289,8.61443614 36.3693637,7.13212132 35.8428584,6.69066691 C31.096211,2.73782738 25.1224012,1.10566106 19.0554406,2.10197102 C12.5105751,3.17523175 6.79191792,7.46827468 3.86373864,13.498785 C0.737107371,19.9504995 1.19071191,27.6334263 5.05445054,33.6477365 C7.22122221,37.0173702 10.3559536,39.7308973 13.9523895,41.3549635 C19.5859959,43.902439 26.0498605,43.8052381 31.5903159,41.095761 C35.6889569,39.095041 39.1193412,35.6565566 41.1079111,31.5619656 C42.1771218,29.3506435 42.8251283,27.0704707 43.100531,24.5148951 C43.197732,23.6117361 43.197732,21.4166142 43.100531,20.5053551 C42.8818288,18.4641346 42.4079741,16.5322653 41.699217,14.7785978 C41.5858159,14.499145 41.496715,14.2682927 41.504815,14.2642426 C41.5291153,14.2399424 43.1207812,13.5595356 43.1531815,13.5595356 C43.201782,13.5595356 43.6513365,14.7137971 43.9105391,15.499505 C44.4167942,17.0466205 44.7286473,18.5289353 44.9230492,20.3231032 C45.0243002,21.2708127 45.0243002,23.7453875 44.9230492,24.697147 C44.7650977,26.1713617 44.5220952,27.4309243 44.1494915,28.7309873 C42.2378724,35.397354 37.3211232,40.8325083 30.8491585,43.4326343 C28.7107371,44.2912429 26.3536135,44.8258483 23.9640896,44.9878499 C23.2593826,45.0324003 21.6555666,45.0324003 20.9589596,44.9837998 L20.9589596,44.9837998 Z" id="Shape" fill="#000000"></path>
        <path d="M21.7284673,39.0747907 C19.9666997,38.9289893 18.3304833,38.3660337 16.9089191,37.4223742 C13.3934839,35.0855009 11.696517,30.9301593 12.5753758,26.8234182 C12.6847268,26.3131131 13.0087301,25.3411034 13.2193322,24.8834488 C13.4501845,24.3812438 14.5679957,22.7531275 18.7719377,16.7793178 C21.9066691,12.3242732 22.4574746,11.5547655 22.497975,11.5547655 C22.5668257,11.5547655 29.2331923,21.0642606 30.9544595,23.6198362 C31.7158672,24.7497975 31.8778688,25.0535505 32.1289713,25.8109081 C32.4732247,26.8436684 32.6271263,27.8116281 32.6271263,28.9496895 C32.6271263,29.9176492 32.5582756,30.5373054 32.3395734,31.4202142 C31.3554136,35.397354 28.0384304,38.3943839 23.9559896,38.9937899 C23.3565836,39.0828908 22.2711727,39.1233912 21.7284673,39.0747907 L21.7284673,39.0747907 Z M23.6360364,37.1874719 C24.5189452,37.0659707 25.4059041,36.7905679 26.199712,36.3936639 C29.99865,34.4901449 31.7523175,30.0877509 30.2902529,26.1146611 C30.0634506,25.495005 29.5571956,24.7497975 22.8503285,15.1917019 C22.6761768,14.9405994 22.5182252,14.7259473 22.5060751,14.7178472 C22.4777248,14.701647 21.6555666,15.8599586 18.5289353,20.3231032 C15.9814598,23.9559896 15.0297003,25.3451535 14.904149,25.6124561 C14.1751418,27.1514715 13.9888399,29.2169922 14.4181442,30.9382594 C15.2443524,34.2511925 17.9538295,36.697417 21.3396634,37.1915219 C21.8661687,37.2684727 23.0852309,37.2644226 23.6360364,37.1874719 L23.6360364,37.1874719 Z" id="Shape" fill="#000000"></path>
        <path d="M21.6474665,33.1252813 C20.2826028,32.8296283 19.1931419,31.9102691 18.6666367,30.6142561 C18.4276843,30.0270003 18.3507335,29.5693457 18.3790838,28.8929889 C18.4195842,27.9574296 18.703087,27.204122 19.2903429,26.4751148 C20.7119071,24.701197 23.3201332,24.4298443 25.102151,25.8716587 C27.0097201,27.4147241 27.1474215,30.2740527 25.397804,32.0074701 C24.8631986,32.5380254 24.2435424,32.8944289 23.5226352,33.0888309 C23.0649806,33.2103321 22.1213212,33.2305823 21.6474665,33.1252813 L21.6474665,33.1252813 Z M23.0204302,31.3189632 C23.8668887,31.1164612 24.5634956,30.399604 24.7457475,29.5369454 C24.8226982,29.1805418 24.8186482,28.9618396 24.7457475,28.6054361 C24.4865449,27.3823238 23.2553326,26.5642156 22.0524705,26.8193682 C21.096661,27.0178202 20.3595536,27.7913779 20.2218522,28.7431374 C19.9869499,30.3348033 21.4571146,31.6875169 23.0204302,31.3189632 L23.0204302,31.3189632 Z" id="Shape" fill="#000000"></path>
    </g>
</svg>