<?xml version="1.0" encoding="utf-8"?>
<!-- Generator: Adobe Illustrator 16.0.0, SVG Export Plug-In . SVG Version: 6.00 Build 0)  -->
<!DOCTYPE svg PUBLIC "-//W3C//DTD SVG 1.1//EN" "http://www.w3.org/Graphics/SVG/1.1/DTD/svg11.dtd">
<svg version="1.1" id="Layer_1" xmlns="http://www.w3.org/2000/svg" xmlns:xlink="http://www.w3.org/1999/xlink" x="0px" y="0px"
	 width="60px" height="60px" viewBox="0 0 60 60" enable-background="new 0 0 60 60" xml:space="preserve">
<g>
	<path fill="#555655" d="M30.673,54.434c-13.417,0-24.332-10.912-24.332-24.325c0-13.414,10.916-24.327,24.332-24.327
		c13.413,0,24.326,10.913,24.326,24.327c0,3.363-0.675,6.625-2.007,9.694l-1.834-0.797c1.222-2.815,1.841-5.81,1.841-8.897
		c0-12.311-10.016-22.327-22.326-22.327c-12.314,0-22.332,10.016-22.332,22.327c0,12.31,10.018,22.325,22.332,22.325
		c6.447,0,12.405-2.686,16.639-7.435H17.75v-2h33.652l-1.186,1.597C45.642,50.756,38.335,54.434,30.673,54.434z"/>
</g>
<g>
	<path fill="#555655" d="M28.123,27.497c-2.472,0-4.483-2.009-4.483-4.479c0-2.471,2.011-4.481,4.483-4.481
		c2.468,0,4.475,2.01,4.475,4.481C32.598,25.488,30.591,27.497,28.123,27.497z M28.123,20.537c-1.369,0-2.483,1.113-2.483,2.481
		c0,1.367,1.114,2.479,2.483,2.479c1.365,0,2.475-1.112,2.475-2.479C30.598,21.65,29.488,20.537,28.123,20.537z"/>
</g>
<g>
	<path fill="#555655" d="M28.118,42l-0.817-1.154c-2.647-3.741-8.838-12.509-9.131-13.122c-0.679-1.466-1.02-3.002-1.02-4.578
		c0-6.045,4.92-10.963,10.967-10.963c0,0,0.001,0,0.002,0c3.065,0,6.012,1.295,8.084,3.553c0.382,0.417,0.732,0.864,1.044,1.331
		c0.064,0.096,0.13,0.198,0.193,0.301l-1.705,1.045c-0.048-0.079-0.098-0.156-0.149-0.232c-0.258-0.387-0.545-0.753-0.856-1.093
		c-1.694-1.846-4.104-2.905-6.611-2.905c0,0,0,0-0.001,0c-4.944,0-8.967,4.021-8.967,8.963c0,1.283,0.279,2.537,0.83,3.726
		c0.299,0.531,4.852,7.014,8.137,11.662l7.899-11.194l1.635,1.153L28.118,42z"/>
</g>
<g>
	<path fill="#555756" d="M46.977,36.812H35.658v-8.885h11.318V36.812z M37.658,34.812h7.318v-4.885h-7.318V34.812z"/>
</g>
<g>
	<path fill="#555756" d="M37.658,28.242h-2v-3.018c0-3.123,2.541-5.664,5.664-5.664c3.124,0,5.666,2.541,5.666,5.664v0.94h-2v-0.94
		c0-2.021-1.645-3.664-3.666-3.664c-2.021,0-3.664,1.644-3.664,3.664V28.242z"/>
</g>
</svg>
