<?xml version="1.0" encoding="utf-8"?>
<!-- Generator: Adobe Illustrator 19.2.0, SVG Export Plug-In . SVG Version: 6.00 Build 0)  -->
<svg version="1.1" id="Capa_1" xmlns="http://www.w3.org/2000/svg" xmlns:xlink="http://www.w3.org/1999/xlink" x="0px" y="0px"
	 width="281.3px" height="462.4px" viewBox="0 0 281.3 462.4" style="enable-background:new 0 0 281.3 462.4;" xml:space="preserve"
	>
<g>
	<path d="M0,0l59,0c0,62,30.7,92.9,60.4,122.8c7.2,7.3,14.5,14.7,21.3,22.4c6.7-7.8,14-15.1,21.3-22.4C191.6,92.9,222.3,62,222.3,0
		l59,0c0,86.3-44.8,131.4-77.5,164.4c-19.4,19.6-31.2,32.1-33.5,45.5c0.1,1.6,0.2,3.2,0.2,4.8h-0.6l0,0v141.9l61.4-24.2
		c2.1-0.8,4.4-0.2,5.7,1.6c1.3,1.8,1.3,4.2,0,5.9l-92.7,120.5c-0.9,1.2-2.4,1.9-3.9,1.9s-3-0.7-3.9-1.9L43.8,339.9
		c-0.7-0.9-1-1.9-1-3c0-1,0.3-2.1,1-3c1.3-1.8,3.7-2.4,5.7-1.6l61.4,24.2V214.5c0,0,0-0.1,0-0.1c0-1.5,0.1-3,0.2-4.5
		c-2.3-13.4-14.1-26-33.5-45.5C44.8,131.4,0,86.3,0,0z"/>
</g>
</svg>
