<?xml version="1.0" encoding="utf-8"?>
<!-- Generator: Adobe Illustrator 20.1.0, SVG Export Plug-In . SVG Version: 6.00 Build 0)  -->
<svg version="1.1" id="Layer_1" xmlns="http://www.w3.org/2000/svg" xmlns:xlink="http://www.w3.org/1999/xlink" x="0px" y="0px"
	 width="221.7px" height="301.6px" viewBox="0 0 221.7 301.6" style="enable-background:new 0 0 221.7 301.6;" xml:space="preserve"
	>
<style type="text/css">
	.st0{fill:#E91E8D;}
	.st1{fill:#F7E735;}
	.st2{fill:#622763;}
	.st3{fill:none;}
	.st4{fill:#79377B;}
	.st5{fill:#9B4A9C;}
	.st6{fill:none;stroke:#7EBFD8;stroke-miterlimit:10;}
	.st7{fill:#FFFFFF;stroke:#622763;stroke-width:3;stroke-miterlimit:10;}
	.st8{fill:#FFFFFF;}
</style>
<g>
	<g>
		<path class="st0" d="M218.2,132l-39.6-39.6c-5.7,7.3-14.5,12.1-24.5,12.1c-17.1,0-30.9-13.8-30.9-30.9c0-10,4.7-18.8,12.1-24.5
			l-15.9-15.9c-4.7-4.7-12.3-4.7-17,0L3.5,132c-4.7,4.7-4.7,12.3,0,17l20.7,20.7c20.6-10.5,50.5-17.1,83.8-17.1
			c35.3,0,66.9,7.4,87.5,19l22.6-22.6C222.8,144.3,222.8,136.7,218.2,132z"/>
		<path class="st1" d="M123.1,73.5c0,17.1,13.8,30.9,30.9,30.9c10,0,18.8-4.7,24.5-12.1L135.2,49C127.9,54.7,123.1,63.5,123.1,73.5z
			"/>
	</g>
	<path class="st2" d="M119.3,247.8l76.2-76.2c-20.6-11.6-52.1-19-87.5-19c-33.3,0-63.2,6.6-83.8,17.1l78.2,78.2
		C107,252.5,114.6,252.5,119.3,247.8z"/>
	<g>
		<path class="st3" d="M44.4,142.4c8.7-1.6,16-5.3,23.2-9.2c-4.5-1.8-9.2-3-14.4-2.8c-6.7,0.3-15.5,5.2-23.9,11.2
			C33.8,142.9,38.8,143.5,44.4,142.4z"/>
		<path class="st0" d="M10.5,157L10.5,157L10.5,157z"/>
	</g>
	<g>
		<path class="st4" d="M103.3,142.9c9.1-1.7,16.6-5.6,24-9.6c-10.3-7.2-20.9-12.7-28.7-11.9c-12.3,1.3-21.6,6.7-31.1,11.8
			c0,0,0,0,0,0C78.8,137.7,88.9,145.6,103.3,142.9z"/>
		<path class="st4" d="M29.1,141.6c-0.8,0.6-1.6,1.2-2.4,1.8c0.9-0.6,1.7-1.2,2.6-1.7C29.3,141.6,29.2,141.6,29.1,141.6z"/>
		<path class="st4" d="M10.4,157c0.1,0,0.2,0,0.3,0l-0.1-0.1C10.5,156.9,10.5,157,10.4,157z"/>
		<path class="st5" d="M9.6,155.9l1,1c4.5-4.1,10.2-9,16.1-13.5C20.8,147.4,14.9,151.8,9.6,155.9z"/>
		<path class="st5" d="M212,154.7c-17.6-14.9-43-34-54.4-32.8c-11.9,1.3-21,6.4-30.3,11.4c0,0,0,0,0.1,0
			c9.1,6.4,17.9,14.2,24.1,20.3l-3.7,3.7c17,3.7,32.1,9.8,44.1,17.5L212,154.7z"/>
		<path class="st5" d="M44.3,142.4c8.7-1.6,16-5.3,23.2-9.2c-4.5-1.8-9.2-3-14.4-2.8c-5.3,0.2-14.3,5-23.8,11.2
			C33.9,142.9,38.8,143.5,44.3,142.4z"/>
		<path class="st5" d="M10.7,157l16.6,16.6c12.7-7.8,28.7-13.8,46.5-17.2C66,156.1,58.1,156,50,156C36.6,156,23.4,156.3,10.7,157z"
			/>
		<path class="st5" d="M127.4,133.3C127.4,133.3,127.4,133.3,127.4,133.3c-7.5,4-15,7.9-24.1,9.6c-14.4,2.7-24.6-5.2-35.8-9.7
			c-7.2,3.9-14.5,7.6-23.2,9.2c-5.5,1.1-10.5,0.5-15-0.7c-0.9,0.6-1.7,1.1-2.6,1.7c-6,4.5-11.7,9.4-16.1,13.5l0.1,0.1
			c12.7-0.7,25.9-1,39.3-1c8,0,16,0.1,23.8,0.4c11-2.1,22.7-3.3,34.9-3.3c13.8,0,27,1.5,39.1,4.2l3.7-3.7
			C145.3,147.5,136.5,139.7,127.4,133.3z"/>
	</g>
	<rect x="55.5" y="84.4" class="st3" width="109.5" height="72"/>
	<g>
		<path class="st6" d="M110.2,262.2"/>
		<path class="st7" d="M110.2,214.5h-7.9l-8.6,46.2c5.4,0.7,10.9,1,16.5,1s11.1-0.4,16.5-1l-8.6-46.2H110.2z"/>
		<polygon class="st8" points="113.6,180 110.2,180 106.9,180 102.9,206.9 110.2,206.9 117.5,206.9 		"/>
		<polygon class="st8" points="111.7,163.4 110.2,163.4 108.8,163.4 107.1,176.2 110.2,176.2 113.4,176.2 		"/>
		<polygon class="st8" points="110.9,153.7 110.2,153.7 109.6,153.7 108.7,159.9 110.2,159.9 111.7,159.9 		"/>
	</g>
</g>
<path class="st0" d="M110.3,14.1l-1.3-0.7l-1.4-9.9l-3.7,7.3l-1.6-0.8l5.1-10l1.6,0.8l1.3,9.4l3.5-7l1.6,0.8L110.3,14.1z M92.4,3.1
	h3.7v9.6H98V3.1h3.7V1.4h-9.4L92.4,3.1L92.4,3.1z M83.2,9.5c0.4,2.1,2.1,3.3,4.5,3.3c2.3,0,4-1.3,4-3.4c0-1.7-1.2-2.7-2.9-3.1
	l-2-0.5c-1-0.2-1.5-0.7-1.5-1.5c0-0.9,0.8-1.6,2-1.6c1.3,0,2.1,0.7,2.3,1.5h1.9c-0.4-1.9-1.8-3.1-4.3-3.1c-2.3,0-3.8,1.4-3.8,3.3
	c0,1.8,1.2,2.7,2.8,3l1.9,0.5c1.2,0.3,1.6,0.7,1.6,1.5c0,1-0.9,1.7-2.2,1.7c-1.2,0-2.2-0.5-2.6-1.7L83.2,9.5L83.2,9.5z M81.6,1.4
	h-1.9v11.3h1.9V1.4z M70.6,12.7h7.3V11h-5.4V1.4h-1.9V12.7z M151.1,1.4v1.7h-5.5v3h5v1.7h-5V11h5.5v1.7h-7.4V1.4L151.1,1.4
	L151.1,1.4z M132.6,1.4h3.8c3.3,0,5.5,2.2,5.5,5.6s-2.1,5.6-5.5,5.6h-3.8V1.4z M136.3,11c2.4,0,3.6-1.5,3.6-3.9s-1.3-3.9-3.6-3.9
	h-1.8v7.9h1.8V11z M130.1,12.7h-1.9V1.4h1.9V12.7z M119.9,6.5h2.4c1.3,0,2-0.7,2-1.7s-0.7-1.7-2-1.7h-2.4V6.5z M119.9,8.1v4.6H118
	V1.4h4.4c2.3,0,3.8,1.2,3.8,3.4c0,1.9-1.1,3-2.9,3.2l3.3,4.6h-2.2L121.3,8L119.9,8.1L119.9,8.1z"/>
<g>
	<path class="st0" d="M29.2,281.1c1.7,0,3.7,0.2,5.2,1.6c1.7,1.5,2,3.5,2,4.9c0,2.5-1,3.9-1.7,4.7c-1.6,1.6-3.7,1.8-5.1,1.8h-2.8v7
		h-4.6v-20H29.2z M26.8,290.4h1.6c0.6,0,1.7,0,2.5-0.8c0.4-0.4,0.8-1.1,0.8-2c0-0.8-0.3-1.5-0.8-2c-0.7-0.7-1.7-0.8-2.6-0.8h-1.6
		V290.4z"/>
	<path class="st0" d="M46.1,287.8v7.4c0,0.6,0.1,1.5,0.8,2.2c0.3,0.3,0.8,0.6,1.8,0.6c0.8,0,1.4-0.3,1.8-0.6
		c0.6-0.6,0.7-1.5,0.7-2.2v-7.4h4.3v7.8c0,1.5-0.1,3-1.5,4.3c-1.5,1.5-3.8,1.7-5.4,1.7c-1.6,0-3.9-0.2-5.4-1.7
		c-1.2-1.2-1.5-2.5-1.5-4v-8.1H46.1z"/>
	<path class="st0" d="M70.1,291.2c-0.7-0.4-1.5-0.8-2.4-0.8c-0.4,0-1,0.1-1.2,0.4c-0.1,0.1-0.3,0.4-0.3,0.6c0,0.3,0.2,0.5,0.4,0.6
		c0.3,0.2,0.8,0.3,1.3,0.4l1.1,0.4c0.8,0.2,1.5,0.5,2.2,1.2c0.8,0.7,1.1,1.5,1.1,2.5c0,1.8-0.8,2.9-1.4,3.5
		c-1.3,1.3-2.9,1.5-4.4,1.5c-1.8,0-3.7-0.4-5.5-1.9l1.8-2.9c0.4,0.4,1,0.8,1.5,1c0.6,0.3,1.2,0.4,1.8,0.4c0.3,0,1,0,1.4-0.3
		c0.3-0.2,0.5-0.5,0.5-0.9c0-0.2-0.1-0.5-0.5-0.8c-0.3-0.2-0.7-0.3-1.3-0.5l-1.1-0.3c-0.8-0.2-1.6-0.7-2.2-1.2c-0.6-0.7-1-1.4-1-2.4
		c0-1.3,0.5-2.4,1.3-3.1c1.2-1.1,2.8-1.3,4-1.3c2,0,3.4,0.5,4.4,1.1L70.1,291.2z"/>
	<path class="st0" d="M78,279.3h4.3v10.1c0.5-0.7,1.1-1.1,1.6-1.4c0.9-0.5,1.6-0.6,2.6-0.6c1,0,2.6,0.1,3.8,1.3
		c1.2,1.2,1.3,2.9,1.3,3.9v8.5h-4.3v-6.9c0-0.9,0-2-0.7-2.7c-0.4-0.4-1-0.6-1.7-0.6c-0.9,0-1.5,0.4-1.7,0.7
		c-0.9,0.8-0.9,2.1-0.9,2.8v6.7H78V279.3z"/>
	<path class="st0" d="M101.1,289.2h-2.8l-0.7-8h4.2L101.1,289.2z"/>
	<path class="st0" d="M107.8,287.8h4.3v1.6c1.3-1.7,2.9-2,4.1-2c1.2,0,2.7,0.2,3.8,1.3c1.3,1.3,1.4,2.8,1.4,3.9v8.5h-4.3v-6.9
		c0-0.9,0-2-0.7-2.7c-0.3-0.3-0.9-0.6-1.6-0.6c-0.9,0-1.5,0.4-1.8,0.7c-0.7,0.7-0.8,1.7-0.8,2.5v6.9h-4.3V287.8z"/>
	<path class="st0" d="M130.8,289.2H128l-0.7-8h4.2L130.8,289.2z"/>
	<path class="st0" d="M145,281.1c1.7,0,3.7,0.2,5.2,1.6c1.7,1.5,2,3.5,2,4.9c0,2.5-1,3.9-1.7,4.7c-1.6,1.6-3.7,1.8-5.1,1.8h-2.8v7
		H138v-20H145z M142.6,290.4h1.6c0.6,0,1.7,0,2.5-0.8c0.4-0.4,0.8-1.1,0.8-2c0-0.8-0.3-1.5-0.8-2c-0.7-0.7-1.7-0.8-2.6-0.8h-1.6
		V290.4z"/>
	<path class="st0" d="M170.7,299.4c-1.2,1.2-3.2,2.2-5.9,2.2c-2.6,0-4.6-1-5.8-2.2c-1.3-1.3-2-3.3-2-5s0.7-3.6,2-5
		c1.2-1.2,3.2-2.2,5.8-2.2c2.6,0,4.6,1,5.9,2.2c1.4,1.4,2,3.3,2,5S172,298.1,170.7,299.4z M162.4,291.9c-0.6,0.6-1,1.4-1,2.5
		c0,1.2,0.5,2,1,2.5c0.5,0.5,1.3,1,2.5,1c1,0,1.8-0.3,2.4-1s1-1.4,1-2.5s-0.4-1.9-1-2.5s-1.4-1-2.4-1
		C163.9,291,163,291.3,162.4,291.9z"/>
	<path class="st0" d="M186.6,291.2c-0.7-0.4-1.5-0.8-2.4-0.8c-0.4,0-1,0.1-1.2,0.4c-0.1,0.1-0.3,0.4-0.3,0.6c0,0.3,0.2,0.5,0.4,0.6
		c0.3,0.2,0.8,0.3,1.3,0.4l1.1,0.4c0.8,0.2,1.5,0.5,2.2,1.2c0.8,0.7,1.1,1.5,1.1,2.5c0,1.8-0.8,2.9-1.4,3.5
		c-1.3,1.3-2.9,1.5-4.4,1.5c-1.8,0-3.7-0.4-5.5-1.9l1.8-2.9c0.4,0.4,1,0.8,1.5,1c0.6,0.3,1.2,0.4,1.8,0.4c0.3,0,1,0,1.4-0.3
		c0.3-0.2,0.5-0.5,0.5-0.9c0-0.2-0.1-0.5-0.5-0.8c-0.3-0.2-0.7-0.3-1.3-0.5l-1.1-0.3c-0.8-0.2-1.6-0.7-2.2-1.2c-0.6-0.7-1-1.4-1-2.4
		c0-1.3,0.5-2.4,1.3-3.1c1.2-1.1,2.8-1.3,4-1.3c2,0,3.4,0.5,4.4,1.1L186.6,291.2z"/>
	<path class="st0" d="M198.9,291.3v9.9h-4.3v-9.9H193v-3.5h1.5v-4.3h4.3v4.3h2.7v3.5H198.9z"/>
</g>
</svg>
