<?xml version="1.0" encoding="utf-8"?>
<!-- Generator: Adobe Illustrator 20.1.0, SVG Export Plug-In . SVG Version: 6.00 Build 0)  -->
<svg version="1.1" id="Layer_1" xmlns="http://www.w3.org/2000/svg" xmlns:xlink="http://www.w3.org/1999/xlink" x="0px" y="0px"
	 width="287.5px" height="335px" viewBox="0 0 287.5 335" style="enable-background:new 0 0 287.5 335;" xml:space="preserve">
<style type="text/css">
	.st0{fill:#16BECC;}
	.st1{fill:#D1CA29;}
	.st2{fill:none;}
	.st3{fill:none;stroke:#085E73;stroke-width:2;stroke-miterlimit:10;}
	.st4{fill:#2D6C6D;}
	.st5{fill:#FFFFFF;}
	.st6{fill:#FFFFFF;stroke:#326E6B;stroke-width:3;stroke-miterlimit:10;}
</style>
<circle class="st0" cx="143.8" cy="128.8" r="99"/>
<path class="st0" d="M141.6,14.1l-1.3-0.7l-1.4-9.9l-3.7,7.3l-1.6-0.8l5.1-10l1.6,0.8l1.3,9.4l3.5-7l1.6,0.8L141.6,14.1z M123.7,3.1
	h3.7v9.6h1.9V3.1h3.7V1.4h-9.4L123.7,3.1L123.7,3.1z M114.5,9.5c0.4,2.1,2.1,3.3,4.5,3.3c2.3,0,4-1.3,4-3.4c0-1.7-1.2-2.7-2.9-3.1
	l-2-0.5c-1-0.2-1.5-0.7-1.5-1.5c0-0.9,0.8-1.6,2-1.6c1.3,0,2.1,0.7,2.3,1.5h1.9c-0.4-1.9-1.8-3.1-4.3-3.1c-2.3,0-3.8,1.4-3.8,3.3
	c0,1.8,1.2,2.7,2.8,3l1.9,0.5c1.2,0.3,1.6,0.7,1.6,1.5c0,1-0.9,1.7-2.2,1.7c-1.2,0-2.2-0.5-2.6-1.7L114.5,9.5L114.5,9.5z M112.9,1.4
	H111v11.3h1.9V1.4z M101.9,12.7h7.3V11h-5.4V1.4h-1.9V12.7z M182.4,1.4v1.7h-5.5v3h5v1.7h-5V11h5.5v1.7H175V1.4L182.4,1.4L182.4,1.4
	z M163.9,1.4h3.8c3.3,0,5.5,2.2,5.5,5.6s-2.1,5.6-5.5,5.6h-3.8V1.4z M167.6,11c2.4,0,3.6-1.5,3.6-3.9s-1.3-3.9-3.6-3.9h-1.8v7.9h1.8
	V11z M161.4,12.7h-1.9V1.4h1.9V12.7z M151.2,6.5h2.4c1.3,0,2-0.7,2-1.7s-0.7-1.7-2-1.7h-2.4V6.5z M151.2,8.1v4.6h-1.9V1.4h4.4
	c2.3,0,3.8,1.2,3.8,3.4c0,1.9-1.1,3-2.9,3.2l3.3,4.6h-2.2L152.6,8L151.2,8.1L151.2,8.1z"/>
<circle class="st1" cx="103.1" cy="147.5" r="30.9"/>
<rect x="75.6" y="86.4" class="st2" width="136.2" height="72"/>
<path class="st3" d="M180.3,78.1c0,0-13.5,22.8-1.2,70.6"/>
<path class="st3" d="M172.7,76.6c0,0-16.8,20.5-11.8,69.6"/>
<g>
	<path class="st4" d="M205.8,37c-0.6-4.9-4.3-12-4.3-12s-7.8,1.7-12,4.3c-4.2,2.6-6.6,6.8-6.6,6.8l-3.5,10.7l1.1,1.4l-5.1,10.8
		l8.1,3.9l2.7,1.3l0,0l5.4,2.6l5.1-10.8l1.8,0l6.1-9.5C204.6,46.4,206.4,41.9,205.8,37z M195.4,43c-2.5,0-4.5-2-4.5-4.5
		s2-4.5,4.5-4.5s4.5,2,4.5,4.5S197.9,43,195.4,43z"/>
	<polygon class="st4" points="176.4,43 162.1,66.1 175.4,59.1 179.4,46.9 	"/>
	<polygon class="st4" points="179.4,46.9 175.4,59.1 180.5,48.3 	"/>
	<polygon class="st4" points="194.7,81.5 203.5,55.8 198.6,55.9 191.7,66.8 	"/>
	<polygon class="st4" points="191.7,66.8 198.6,55.9 196.8,56 	"/>
	<polygon class="st4" points="180.8,61.7 179.7,71.1 186.2,64.2 183.5,63 	"/>
	<polygon class="st4" points="183.5,63 186.2,64.2 186.2,64.2 	"/>
</g>
<g>
	<path class="st4" d="M143.8,228.8c44,0,81.2-28.6,94.1-68.3c-20.1-12.6-54.7-20.9-94.1-20.9s-74,8.3-94.1,20.9
		C62.6,200.1,99.8,228.8,143.8,228.8z"/>
</g>
<g>
	<path class="st5" d="M143.2,250"/>
	<path class="st6" d="M143.2,202.2h-7.9l-8.6,46.2c5.4,0.7,10.9,1,16.5,1c5.6,0,11.1-0.4,16.5-1l-8.6-46.2H143.2z"/>
	<polygon class="st5" points="146.6,167.7 143.2,167.7 139.9,167.7 135.9,194.7 143.2,194.7 150.5,194.7 	"/>
	<polygon class="st5" points="144.7,151.1 143.2,151.1 141.8,151.1 140.1,163.9 143.2,163.9 146.4,163.9 	"/>
	<polygon class="st5" points="143.9,141.4 143.2,141.4 142.5,141.4 141.7,147.7 143.2,147.7 144.7,147.7 	"/>
</g>
<circle class="st5" cx="99.9" cy="77.5" r="8.5"/>
<circle class="st5" cx="113.5" cy="75.1" r="11.8"/>
<circle class="st5" cx="127.4" cy="77.7" r="7.4"/>
<g>
	<path class="st4" d="M81.9,278.6l4.3,13.3l4.3-13.3h3.2l4.3,13.3l4.3-13.3h4.8l-6.8,20h-3.9L92,286.4l-4.2,12.1h-3.9l-6.8-20H81.9z
		"/>
	<path class="st4" d="M123.8,296.9c-1.2,1.2-3.2,2.2-5.8,2.2c-2.6,0-4.7-1-5.8-2.2c-1.4-1.3-2-3.3-2-5s0.7-3.6,2-5
		c1.2-1.2,3.2-2.2,5.8-2.2c2.6,0,4.6,1,5.8,2.2c1.3,1.4,2,3.3,2,5S125.2,295.5,123.8,296.9z M115.5,289.4c-0.6,0.6-1,1.4-1,2.5
		c0,1.2,0.5,2,1,2.5c0.5,0.5,1.3,1,2.5,1c1,0,1.8-0.3,2.4-1s1-1.4,1-2.5s-0.4-1.9-1-2.5s-1.4-1-2.4-1
		C117,288.4,116.2,288.7,115.5,289.4z"/>
	<path class="st4" d="M136,276.7v21.9h-4.3v-21.9H136z"/>
	<path class="st4" d="M146.9,276.7v13.4l4.9-4.9h5.7l-6.4,6.1l6.8,7.3h-5.8l-5.2-5.8v5.8h-4.3v-21.9H146.9z"/>
	<path class="st4" d="M175.5,292.6h-10c0,0.7,0.3,1.7,0.8,2.3c0.7,0.7,1.6,0.8,2.2,0.8c0.6,0,1.3-0.1,1.7-0.4c0.1,0,0.6-0.4,0.9-1.1
		l4.1,0.4c-0.6,1.9-1.8,2.9-2.6,3.4c-1.3,0.8-2.7,1-4.2,1c-2,0-3.8-0.4-5.3-1.9c-1.2-1.2-2-2.9-2-5.2c0-1.9,0.7-3.9,2-5.3
		c1.6-1.6,3.6-1.9,5.1-1.9s3.7,0.3,5.3,2c1.6,1.7,1.9,3.8,1.9,5.4V292.6z M171.5,290c0-0.1-0.2-1-0.9-1.6c-0.5-0.5-1.2-0.8-2-0.8
		c-1.1,0-1.8,0.4-2.2,0.9c-0.3,0.4-0.6,0.8-0.8,1.4H171.5z"/>
	<path class="st4" d="M181.2,285.2h4.3v1.6c1.3-1.7,2.9-2,4.1-2c1.2,0,2.7,0.2,3.8,1.3c1.3,1.3,1.3,2.8,1.3,3.9v8.5h-4.3v-6.9
		c0-0.9,0-2-0.7-2.7c-0.3-0.3-0.9-0.6-1.7-0.6c-0.9,0-1.5,0.4-1.8,0.7c-0.7,0.7-0.8,1.7-0.8,2.5v6.9h-4.3V285.2z"/>
	<path class="st4" d="M203.6,293.9l3.9,0.2l-4.5,8.4l-2.7-0.1L203.6,293.9z"/>
	<path class="st4" d="M4.6,322.9l6.8-8.3h5.6L9,324l8.7,10.5h-5.9l-7.2-8.9v8.9H0v-20h4.6V322.9z"/>
	<path class="st4" d="M26,321.2v7.4c0,0.6,0.1,1.5,0.8,2.2c0.3,0.3,0.8,0.6,1.8,0.6c0.8,0,1.4-0.3,1.8-0.6c0.6-0.6,0.7-1.5,0.7-2.2
		v-7.4h4.3v7.8c0,1.5-0.1,3-1.5,4.3c-1.5,1.5-3.8,1.7-5.4,1.7c-1.7,0-3.9-0.2-5.4-1.7c-1.2-1.2-1.5-2.5-1.5-4v-8.1H26z"/>
	<path class="st4" d="M51.8,325.4c-1-0.9-2.1-1-2.8-1c-1.3,0-2.2,0.7-2.5,1c-0.6,0.6-1,1.4-1,2.5c0,1,0.4,1.8,0.9,2.4
		c0.7,0.7,1.7,1.1,2.6,1.1c0.8,0,1.8-0.2,2.8-1v3.9c-1.1,0.6-2.2,0.8-3.4,0.8c-2.2,0-4-0.8-5.2-2c-1-1-2.1-2.7-2.1-5.1
		c0-2.3,1-4.1,2.2-5.3c1.5-1.4,3.3-1.9,5.1-1.9c1.2,0,2.2,0.2,3.4,0.8V325.4z"/>
	<path class="st4" d="M57.8,312.7h4.3v10.1c0.5-0.7,1.1-1.1,1.6-1.4c0.9-0.5,1.7-0.6,2.6-0.6c1,0,2.6,0.1,3.8,1.3
		c1.2,1.2,1.3,2.9,1.3,3.9v8.5h-4.3v-6.9c0-0.9,0-2-0.7-2.7c-0.4-0.4-1-0.6-1.7-0.6c-0.9,0-1.5,0.4-1.7,0.7
		c-0.9,0.8-0.9,2.1-0.9,2.8v6.7h-4.3V312.7z"/>
	<path class="st4" d="M90.9,328.6h-10c0,0.7,0.3,1.7,0.8,2.3c0.7,0.7,1.6,0.8,2.2,0.8c0.6,0,1.3-0.1,1.7-0.4c0.1,0,0.6-0.4,0.9-1.1
		l4.1,0.4c-0.6,1.9-1.8,2.9-2.6,3.4c-1.3,0.8-2.7,1-4.2,1c-2,0-3.8-0.4-5.3-1.9c-1.2-1.2-2-2.9-2-5.2c0-1.9,0.7-3.9,2-5.3
		c1.6-1.6,3.6-1.9,5.1-1.9s3.7,0.3,5.3,2c1.6,1.7,1.9,3.8,1.9,5.4V328.6z M86.9,326c0-0.1-0.2-1-0.9-1.6c-0.5-0.5-1.2-0.8-2-0.8
		c-1.1,0-1.8,0.4-2.2,0.9c-0.3,0.4-0.6,0.8-0.8,1.4H86.9z"/>
	<path class="st4" d="M96.6,321.2h4.3v1.6c1.3-1.7,2.9-2,4.1-2c1.2,0,2.7,0.2,3.8,1.3c1.3,1.3,1.3,2.8,1.3,3.9v8.5h-4.3v-6.9
		c0-0.9,0-2-0.7-2.7c-0.3-0.3-0.9-0.6-1.7-0.6c-0.9,0-1.5,0.4-1.8,0.7c-0.7,0.7-0.8,1.7-0.8,2.5v6.9h-4.3V321.2z"/>
	<path class="st4" d="M145.4,327c-0.9,1.1-1.8,2.1-2.7,2.9l4.3,4.7h-5.6l-1.8-2c-0.8,0.8-1.7,1.4-2.5,1.8c-1.1,0.5-2.4,0.6-3.8,0.6
		c-1.7,0-3.5-0.1-5.1-1.6c-0.7-0.6-1.7-1.9-1.7-4.1c0-1.6,0.5-2.9,1.6-4c0.8-0.8,2-1.5,3.2-1.9c-0.5-0.5-1.1-1.2-1.4-1.8
		c-0.4-0.8-0.5-1.5-0.5-2.3c0-1.7,0.7-2.8,1.4-3.6c0.9-0.8,2.3-1.6,4.4-1.6c2,0,3.5,0.7,4.5,1.6c0.8,0.8,1.4,2,1.4,3.4
		c0,1.2-0.5,2.5-1.5,3.5c-0.6,0.5-1.3,1-2.2,1.4l2.9,3.2c1-0.9,1.8-1.9,2.5-2.8L145.4,327z M133.5,325.8c-0.5,0.3-1.2,0.7-1.6,1.2
		c-0.6,0.6-0.7,1.3-0.7,1.8c0,0.7,0.3,1.2,0.7,1.6c0.5,0.4,1.2,0.7,2,0.7c1.3,0,2.4-0.8,3.1-1.3L133.5,325.8z M134.2,320.5
		c0.5,0.7,1.1,1.3,1.1,1.3c0.5-0.2,1.1-0.7,1.4-1.1c0.4-0.4,0.6-1,0.6-1.7c0-0.5-0.2-1-0.5-1.3c-0.2-0.2-0.7-0.5-1.3-0.5
		c-0.4,0-0.8,0.1-1.3,0.4c-0.4,0.3-0.6,0.8-0.6,1.3C133.6,319.6,133.9,320,134.2,320.5z"/>
	<path class="st4" d="M169.4,314.6c2.5,0,4.1,0.8,5.1,1.7c0.8,0.8,1.7,2.2,1.7,4.5c0,1.3-0.3,2.8-1.6,4.1c-0.7,0.7-1.7,1.3-2.8,1.5
		l6.2,8.2h-5.6l-5.4-7.9v7.9h-4.6v-20H169.4z M167,323.6h1c0.8,0,2-0.1,2.8-0.9c0.3-0.3,0.8-1,0.8-2c0-1.1-0.5-1.7-0.9-2
		c-0.8-0.6-2-0.6-2.5-0.6H167V323.6z"/>
	<path class="st4" d="M193.1,321.2h4.3v13.4h-4.3v-1.6c-1.2,1.8-2.8,2.1-4,2.1c-1.9,0-3.5-0.5-5-2c-1.4-1.5-2-3.2-2-5
		c0-2.2,0.8-4.2,2.1-5.4c1.2-1.2,2.8-1.8,4.6-1.8c1.1,0,3,0.3,4.2,1.9V321.2z M187.6,325.4c-0.5,0.5-1,1.2-1,2.4s0.5,2,0.9,2.4
		c0.6,0.6,1.5,1,2.5,1c0.9,0,1.7-0.4,2.2-0.9c0.6-0.5,1.1-1.4,1.1-2.5c0-1-0.4-1.9-1-2.5c-0.7-0.6-1.6-0.9-2.4-0.9
		C189,324.5,188.2,324.8,187.6,325.4z"/>
	<path class="st4" d="M208.2,312.7v13.4l4.9-4.9h5.7l-6.4,6.1l6.8,7.3h-5.8l-5.2-5.8v5.8h-4.3v-21.9H208.2z"/>
	<path class="st4" d="M236.8,328.6h-10c0,0.7,0.3,1.7,0.8,2.3c0.7,0.7,1.6,0.8,2.2,0.8c0.6,0,1.3-0.1,1.7-0.4c0.1,0,0.6-0.4,0.9-1.1
		l4.1,0.4c-0.6,1.9-1.8,2.9-2.6,3.4c-1.3,0.8-2.7,1-4.2,1c-2,0-3.8-0.4-5.3-1.9c-1.2-1.2-2-2.9-2-5.2c0-1.9,0.7-3.9,2-5.3
		c1.6-1.6,3.6-1.9,5.1-1.9s3.7,0.3,5.3,2c1.6,1.7,1.9,3.8,1.9,5.4V328.6z M232.8,326c0-0.1-0.2-1-0.9-1.6c-0.5-0.5-1.2-0.8-2-0.8
		c-1.1,0-1.8,0.4-2.2,0.9c-0.3,0.4-0.6,0.8-0.8,1.4H232.8z"/>
	<path class="st4" d="M247,324.7v9.9h-4.3v-9.9h-1.5v-3.5h1.5v-4.3h4.3v4.3h2.7v3.5H247z"/>
	<path class="st4" d="M268.2,328.6h-10c0,0.7,0.3,1.7,0.8,2.3c0.7,0.7,1.6,0.8,2.2,0.8c0.6,0,1.3-0.1,1.7-0.4c0.1,0,0.6-0.4,0.9-1.1
		l4.1,0.4c-0.6,1.9-1.8,2.9-2.6,3.4c-1.3,0.8-2.7,1-4.2,1c-2,0-3.8-0.4-5.3-1.9c-1.2-1.2-2-2.9-2-5.2c0-1.9,0.7-3.9,2-5.3
		c1.6-1.6,3.6-1.9,5.1-1.9s3.7,0.3,5.3,2c1.6,1.7,1.9,3.8,1.9,5.4V328.6z M264.2,326c0-0.1-0.2-1-0.9-1.6c-0.5-0.5-1.2-0.8-2-0.8
		c-1.1,0-1.8,0.4-2.2,0.9c-0.3,0.4-0.6,0.8-0.8,1.4H264.2z"/>
	<path class="st4" d="M273.9,321.2h4.3v1.6c1.3-1.7,2.9-2,4.1-2c1.2,0,2.7,0.2,3.8,1.3c1.3,1.3,1.3,2.8,1.3,3.9v8.5h-4.3v-6.9
		c0-0.9,0-2-0.7-2.7c-0.3-0.3-0.9-0.6-1.7-0.6c-0.9,0-1.5,0.4-1.8,0.7c-0.7,0.7-0.8,1.7-0.8,2.5v6.9h-4.3V321.2z"/>
</g>
</svg>
