<svg xmlns="http://www.w3.org/2000/svg" width="44" height="44" viewBox="-68 -61 44 44"><style>.a{fill:#FFF;}</style><desc>  Created with Sketch.</desc><g fill="none"><path d="M-46-17C-58.1-17-68-26.9-68-39 -68-51.1-58.1-61-46-61 -33.9-61-24-51.1-24-39 -24-26.9-33.9-17-46-17L-46-17 -46-17ZM-46-59.5C-57.3-59.5-66.5-50.3-66.5-39 -66.5-27.7-57.3-18.5-46-18.5 -34.7-18.5-25.5-27.7-25.5-39 -25.5-50.3-34.7-59.5-46-59.5L-46-59.5 -46-59.5Z" class="a"/><path d="M-37.8-40.8C-37.5-41.3-37.3-41.8-37.3-42.4 -37.3-43.8-38.4-45-39.7-45 -41.1-45-42.1-43.8-42.1-42.4 -42.1-41.8-42-41.3-41.7-40.8 -42.1-40.7-42.4-40.5-42.7-40.2 -42.7-40.4-42.7-40.6-42.7-40.8 -42.7-42.6-43.9-43.9-45.5-43.9 -47.1-43.9-48.4-42.6-48.4-40.8 -48.4-40.6-48.3-40.4-48.3-40.2 -48.6-40.5-48.9-40.7-49.4-40.8 -49.1-41.3-48.9-41.8-48.9-42.4 -48.9-43.8-49.9-45-51.3-45 -52.7-45-53.7-43.8-53.7-42.4 -53.7-41.8-53.6-41.3-53.3-40.8 -54.3-40.5-55-39.6-55-38.5L-55-36.7C-55-36.4-54.8-36.1-54.5-36.1 -54.2-36.1-53.9-36.4-53.9-36.7L-53.9-38.5C-53.9-39.3-53.3-39.9-52.5-39.9L-52.3-39.9 -52.3-40C-52-39.8-51.6-39.7-51.3-39.7 -51-39.7-50.7-39.8-50.4-40L-50.4-39.9 -50.2-39.9C-49.3-39.9-48.7-39.3-48.7-38.5 -48.7-38.4-48.7-38.4-48.7-38.4 -49.4-37.9-49.9-37-49.9-35.9L-49.9-33.7C-49.9-33.4-49.7-33.2-49.4-33.2 -49.1-33.2-48.9-33.4-48.9-33.7L-48.9-35.9C-48.9-37-47.9-37.9-46.9-37.9L-46.8-37.9C-46.4-37.7-46-37.6-45.5-37.6 -45.1-37.6-44.7-37.7-44.3-37.9L-44.1-37.9C-43.1-37.9-42.1-37-42.1-35.9L-42.1-33.7C-42.1-33.4-41.9-33.2-41.6-33.2 -41.3-33.2-41.1-33.4-41.1-33.7L-41.1-35.9C-41.1-37-41.6-37.9-42.4-38.4 -42.4-38.4-42.4-38.4-42.4-38.5 -42.4-39.3-41.7-39.9-40.9-39.9L-40.7-39.9 -40.7-40C-40.4-39.8-40.1-39.7-39.7-39.7 -39.4-39.7-39.1-39.8-38.8-40L-38.8-39.9 -38.6-39.9C-37.7-39.9-37.1-39.3-37.1-38.5L-37.1-36.7C-37.1-36.4-36.9-36.1-36.6-36.1 -36.2-36.1-36-36.4-36-36.7L-36-38.5C-36-39.6-36.8-40.5-37.8-40.8L-37.8-40.8ZM-52.7-42.4C-52.7-43.2-52-43.9-51.3-43.9 -50.6-43.9-49.9-43.2-49.9-42.4 -49.9-41.5-50.6-40.8-51.3-40.8 -52-40.8-52.7-41.5-52.7-42.4L-52.7-42.4ZM-47.3-40.8C-47.3-41.9-46.5-42.9-45.5-42.9 -44.6-42.9-43.7-41.9-43.7-40.8 -43.7-39.6-44.5-38.7-45.5-38.7 -46.6-38.7-47.3-39.6-47.3-40.8L-47.3-40.8ZM-41.1-42.4C-41.1-43.2-40.5-43.9-39.7-43.9 -39-43.9-38.4-43.2-38.4-42.4 -38.4-41.5-39-40.8-39.7-40.8 -40.5-40.8-41.1-41.5-41.1-42.4L-41.1-42.4Z" class="a"/></g></svg>