<?xml version="1.0" encoding="utf-8"?>
<!-- Generator: Adobe Illustrator 16.0.0, SVG Export Plug-In . SVG Version: 6.00 Build 0)  -->
<!DOCTYPE svg PUBLIC "-//W3C//DTD SVG 1.1//EN" "http://www.w3.org/Graphics/SVG/1.1/DTD/svg11.dtd">
<svg version="1.1" id="Layer_1" xmlns="http://www.w3.org/2000/svg" xmlns:xlink="http://www.w3.org/1999/xlink" x="0px" y="0px"
	 width="166px" height="166px" viewBox="0 0 166 166" enable-background="new 0 0 166 166" xml:space="preserve">
<circle fill="#3EC694" cx="83" cy="82.998" r="80"/>
<g>
	<path fill="#FFFFFF" d="M39.828,54.882l-1.223,1.972l-12.465-7.728l1.222-1.973L39.828,54.882z"/>
	<path fill="#FFFFFF" d="M35.639,39.157c-0.259-0.25-0.395-0.538-0.408-0.865c-0.013-0.328,0.125-0.643,0.417-0.945
		c0.292-0.302,0.602-0.454,0.932-0.454c0.33,0,0.624,0.124,0.883,0.374c0.254,0.245,0.386,0.531,0.395,0.859
		s-0.132,0.643-0.424,0.945c-0.292,0.302-0.6,0.453-0.925,0.453C36.183,39.524,35.893,39.402,35.639,39.157z M46.722,46.429
		l-1.612,1.669l-7.434-7.175l1.612-1.669L46.722,46.429z"/>
	<path fill="#FFFFFF" d="M56.467,35.576c-0.215-0.353-0.524-0.534-0.927-0.542c-0.404-0.008-0.985,0.122-1.747,0.39
		s-1.432,0.432-2.016,0.488c-1.281,0.123-2.197-0.269-2.75-1.178c-0.464-0.762-0.529-1.593-0.198-2.495
		c0.331-0.901,0.992-1.652,1.982-2.254c1.055-0.642,2.066-0.898,3.034-0.771c0.968,0.128,1.703,0.607,2.209,1.439l-1.982,1.205
		c-0.232-0.381-0.567-0.612-1.002-0.693c-0.437-0.081-0.889,0.021-1.357,0.305c-0.436,0.265-0.729,0.581-0.881,0.949
		c-0.153,0.369-0.126,0.721,0.078,1.058c0.187,0.305,0.457,0.464,0.815,0.477c0.358,0.013,0.978-0.13,1.861-0.432
		c0.881-0.302,1.616-0.469,2.204-0.502c0.586-0.033,1.089,0.051,1.505,0.252c0.417,0.202,0.77,0.539,1.057,1.012
		c0.483,0.794,0.544,1.638,0.185,2.53c-0.358,0.892-1.071,1.662-2.137,2.311c-0.724,0.439-1.448,0.701-2.172,0.783
		c-0.725,0.083-1.383-0.008-1.978-0.273c-0.593-0.265-1.049-0.662-1.37-1.189l1.926-1.17c0.311,0.451,0.707,0.704,1.187,0.758
		c0.48,0.055,0.991-0.082,1.529-0.409c0.521-0.318,0.858-0.658,1.009-1.022C56.684,36.24,56.662,35.897,56.467,35.576z"/>
	<path fill="#FFFFFF" d="M66.461,20.807l0.678,2.418l1.756-0.492l0.464,1.655l-1.756,0.492l1.556,5.554
		c0.106,0.38,0.259,0.633,0.457,0.76c0.197,0.127,0.489,0.135,0.876,0.027c0.256-0.072,0.508-0.175,0.755-0.311l0.484,1.729
		c-0.47,0.284-0.94,0.492-1.412,0.624c-1.716,0.481-2.84-0.225-3.372-2.119l-1.579-5.637l-1.636,0.459L63.27,24.31l1.636-0.458
		l-0.677-2.418L66.461,20.807z"/>
	<path fill="#FFFFFF" d="M81.284,21.159l0.059,1.194c0.771-0.917,1.777-1.371,3.019-1.361c2.152,0.017,3.236,1.257,3.256,3.72
		l-0.052,6.827l-2.32-0.017l0.051-6.694c0.005-0.656-0.134-1.143-0.413-1.46c-0.281-0.316-0.743-0.478-1.386-0.482
		c-0.937-0.007-1.636,0.411-2.101,1.254l-0.056,7.352l-2.321-0.017l0.079-10.332L81.284,21.159z"/>
	<path fill="#FFFFFF" d="M102.239,26.399c-0.28-0.132-0.577-0.242-0.889-0.33c-1.023-0.288-1.823-0.089-2.4,0.595l-1.913,6.801
		l-2.234-0.628l2.799-9.945l2.133,0.599l-0.258,1.128c0.782-0.712,1.651-0.934,2.607-0.665c0.318,0.089,0.57,0.207,0.755,0.351
		L102.239,26.399z"/>
	<path fill="#FFFFFF" d="M107.601,37.758l-2.062-1.063l4.737-9.182l2.061,1.064L107.601,37.758z M111.381,25.054
		c0.165-0.319,0.402-0.532,0.712-0.64c0.31-0.107,0.651-0.064,1.023,0.128c0.374,0.193,0.608,0.447,0.704,0.763
		c0.094,0.316,0.059,0.633-0.105,0.953c-0.161,0.314-0.398,0.522-0.709,0.625c-0.312,0.103-0.653,0.058-1.026-0.135
		c-0.374-0.192-0.606-0.444-0.7-0.756S111.22,25.368,111.381,25.054z"/>
	<path fill="#FFFFFF" d="M116.551,37.021c1.044-1.2,2.162-1.923,3.352-2.166c1.189-0.243,2.253,0.043,3.189,0.857
		c0.827,0.719,1.242,1.587,1.252,2.607l3.471-3.992l1.752,1.523l-9.626,11.066l-1.584-1.378l0.614-0.882
		c-1.075,0.179-2.049-0.112-2.924-0.872c-0.912-0.794-1.33-1.804-1.256-3.03C114.865,39.529,115.452,38.285,116.551,37.021z
		 M118.17,38.696c-0.689,0.792-1.075,1.543-1.156,2.252c-0.082,0.71,0.159,1.309,0.722,1.798c0.715,0.623,1.517,0.758,2.403,0.408
		l2.896-3.329c0.22-0.904-0.026-1.668-0.743-2.29c-0.566-0.493-1.199-0.649-1.896-0.467C119.696,37.25,118.955,37.792,118.17,38.696
		z"/>
	<path fill="#FFFFFF" d="M126.492,55.871c-0.79-1.241-1.039-2.495-0.749-3.763c0.29-1.267,1.086-2.315,2.386-3.142l0.242-0.154
		c0.869-0.554,1.754-0.88,2.651-0.981c0.897-0.1,1.731,0.032,2.499,0.396c0.768,0.364,1.389,0.918,1.864,1.666
		c0.755,1.186,0.961,2.344,0.616,3.473c-0.346,1.129-1.212,2.135-2.598,3.017l-0.789,0.502l-3.625-5.695
		c-0.682,0.517-1.099,1.119-1.248,1.808c-0.15,0.688-0.022,1.352,0.384,1.991c0.57,0.896,1.399,1.396,2.482,1.499l-0.335,1.696
		c-0.743-0.018-1.443-0.226-2.103-0.626S126.953,56.596,126.492,55.871z M133.81,50.884c-0.341-0.537-0.805-0.851-1.392-0.942
		c-0.586-0.091-1.244,0.031-1.973,0.368l2.374,3.729l0.144-0.092c0.629-0.46,1.014-0.949,1.154-1.469
		C134.258,51.958,134.154,51.426,133.81,50.884z"/>
</g>
<g>
	<path fill="#FFFFFF" d="M29.847,122.82c-0.823-0.076-1.614-0.402-2.374-0.978c-0.76-0.574-1.442-1.342-2.045-2.301
		c-0.62-0.987-0.945-2-0.975-3.041c-0.031-1.042,0.241-2.03,0.814-2.965c0.574-0.937,1.41-1.761,2.51-2.475l0.922-0.58
		c1.778-1.118,3.435-1.565,4.97-1.342c1.535,0.223,2.782,1.097,3.741,2.622c0.823,1.309,1.152,2.554,0.987,3.732
		s-0.807,2.229-1.927,3.15l-1.26-2.003c1.274-1.118,1.466-2.386,0.576-3.804c-0.577-0.916-1.344-1.405-2.302-1.469
		c-0.958-0.062-2.079,0.299-3.363,1.082l-0.903,0.568c-1.268,0.797-2.085,1.685-2.448,2.662c-0.365,0.977-0.247,1.942,0.353,2.896
		c0.658,1.046,1.361,1.642,2.111,1.786l2.291-1.439L30,116.499l1.553-0.977l2.806,4.462L29.847,122.82z"/>
	<path fill="#FFFFFF" d="M40.524,134.819c-1.041,0.157-2.034-0.174-2.98-0.998c-0.845-0.736-1.27-1.54-1.274-2.412
		c-0.004-0.872,0.401-1.776,1.215-2.714l4.394-5.05l1.751,1.523l-4.375,5.027c-0.861,0.989-0.881,1.842-0.06,2.557
		c0.85,0.74,1.689,0.934,2.517,0.583l4.87-5.597l1.751,1.522l-6.782,7.794l-1.65-1.436L40.524,134.819z"/>
	<path fill="#FFFFFF" d="M55.476,145.201c-0.006-0.222,0.052-0.551,0.176-0.985c-0.999,0.375-1.98,0.33-2.945-0.133
		c-0.935-0.448-1.57-1.083-1.904-1.899c-0.335-0.818-0.314-1.621,0.064-2.406c0.477-0.992,1.211-1.578,2.204-1.755
		c0.992-0.176,2.174,0.065,3.545,0.724l1.283,0.617l0.293-0.612c0.232-0.481,0.282-0.933,0.152-1.353
		c-0.131-0.418-0.472-0.761-1.021-1.024c-0.477-0.229-0.925-0.298-1.343-0.206c-0.419,0.092-0.716,0.323-0.893,0.69l-2.091-1.006
		c0.246-0.51,0.644-0.906,1.196-1.188c0.552-0.284,1.18-0.41,1.883-0.384c0.704,0.027,1.415,0.214,2.132,0.559
		c1.09,0.523,1.827,1.216,2.212,2.074c0.385,0.859,0.348,1.79-0.111,2.79l-2.018,4.2c-0.402,0.839-0.606,1.562-0.61,2.176
		l-0.07,0.146L55.476,145.201z M53.901,142.591c0.413,0.198,0.85,0.284,1.311,0.259c0.461-0.025,0.865-0.163,1.211-0.414
		l0.844-1.756l-1.127-0.541c-0.774-0.373-1.422-0.518-1.942-0.437c-0.52,0.083-0.898,0.37-1.135,0.864
		c-0.193,0.401-0.214,0.785-0.061,1.152C53.153,142.085,53.454,142.376,53.901,142.591z"/>
	<path fill="#FFFFFF" d="M73.593,142.132c-0.288-0.114-0.591-0.206-0.908-0.273c-1.039-0.223-1.825,0.025-2.357,0.744l-1.482,6.91
		l-2.269-0.488l2.167-10.101l2.167,0.465l-0.187,1.141c0.736-0.76,1.59-1.036,2.56-0.827c0.324,0.068,0.583,0.17,0.775,0.303
		L73.593,142.132z"/>
	<path fill="#FFFFFF" d="M86.494,150.937c-0.106-0.195-0.202-0.515-0.288-0.958c-0.722,0.785-1.616,1.191-2.686,1.215
		c-1.037,0.022-1.89-0.254-2.559-0.832c-0.669-0.577-1.013-1.303-1.032-2.174c-0.025-1.102,0.366-1.955,1.17-2.562
		c0.805-0.607,1.968-0.927,3.488-0.961l1.423-0.031l-0.015-0.678c-0.013-0.534-0.171-0.959-0.478-1.274
		c-0.306-0.313-0.765-0.466-1.375-0.451c-0.528,0.011-0.958,0.153-1.29,0.425c-0.332,0.271-0.493,0.611-0.484,1.018l-2.32,0.051
		c-0.012-0.566,0.164-1.1,0.528-1.602c0.365-0.501,0.867-0.899,1.507-1.193s1.357-0.45,2.152-0.468
		c1.21-0.025,2.181,0.256,2.913,0.848c0.732,0.593,1.12,1.438,1.164,2.539l0.103,4.658c0.021,0.93,0.167,1.668,0.44,2.217
		l0.004,0.162L86.494,150.937z M83.909,149.322c0.458-0.01,0.887-0.131,1.286-0.363c0.398-0.231,0.696-0.536,0.892-0.917
		l-0.043-1.947l-1.251,0.027c-0.858,0.019-1.501,0.183-1.928,0.491c-0.426,0.309-0.632,0.737-0.621,1.284
		c0.01,0.445,0.166,0.797,0.468,1.055S83.413,149.333,83.909,149.322z"/>
	<path fill="#FFFFFF" d="M97.513,138.836l0.405,1.124c0.468-1.103,1.298-1.83,2.487-2.185c2.062-0.614,3.463,0.254,4.202,2.604
		l1.949,6.542l-2.224,0.662l-1.911-6.415c-0.188-0.627-0.462-1.052-0.822-1.273c-0.362-0.222-0.851-0.24-1.467-0.057
		c-0.896,0.268-1.444,0.872-1.642,1.814l2.099,7.047l-2.224,0.661l-2.949-9.902L97.513,138.836z"/>
	<path fill="#FFFFFF" d="M111.436,130.271l1.261,2.173l1.577-0.917l0.863,1.486l-1.577,0.917l2.896,4.986
		c0.199,0.341,0.409,0.549,0.633,0.622c0.222,0.072,0.507,0.009,0.854-0.192c0.231-0.135,0.449-0.298,0.654-0.49l0.901,1.552
		c-0.383,0.393-0.787,0.711-1.211,0.957c-1.541,0.896-2.807,0.492-3.794-1.209l-2.939-5.062l-1.47,0.854l-0.862-1.486l1.47-0.854
		l-1.262-2.171L111.436,130.271z"/>
	<path fill="#FFFFFF" d="M130.269,132.136c-1.066,1.014-2.249,1.499-3.549,1.457c-1.301-0.043-2.481-0.622-3.543-1.738l-0.197-0.207
		c-0.71-0.749-1.2-1.554-1.472-2.416c-0.271-0.861-0.301-1.704-0.091-2.526c0.211-0.824,0.636-1.54,1.277-2.15
		c1.02-0.97,2.116-1.393,3.292-1.271c1.173,0.122,2.326,0.779,3.458,1.97l0.645,0.678l-4.894,4.65
		c0.639,0.57,1.31,0.863,2.014,0.879s1.331-0.237,1.881-0.76c0.77-0.731,1.102-1.64,0.994-2.724l1.729,0.005
		c0.125,0.731,0.055,1.459-0.212,2.182C131.336,130.887,130.892,131.545,130.269,132.136z M123.97,125.911
		c-0.461,0.438-0.681,0.955-0.657,1.547c0.023,0.593,0.271,1.215,0.739,1.866l3.205-3.047l-0.118-0.123
		c-0.572-0.528-1.127-0.812-1.664-0.851C124.938,125.267,124.437,125.469,123.97,125.911z"/>
	<path fill="#FFFFFF" d="M141.495,118.003c-0.765,1.257-1.779,2.034-3.045,2.333c-1.267,0.3-2.558,0.049-3.874-0.751l-0.245-0.149
		c-0.881-0.535-1.564-1.185-2.051-1.946c-0.487-0.761-0.737-1.566-0.749-2.416c-0.013-0.851,0.211-1.652,0.671-2.408
		c0.73-1.203,1.68-1.897,2.845-2.087s2.449,0.144,3.853,0.996l0.8,0.486l-3.508,5.768c0.766,0.384,1.49,0.49,2.174,0.322
		c0.684-0.169,1.223-0.576,1.616-1.224c0.553-0.908,0.635-1.872,0.248-2.89l1.669-0.449c0.313,0.675,0.436,1.396,0.368,2.163
		C142.198,116.518,141.941,117.269,141.495,118.003z M133.788,113.641c-0.33,0.544-0.407,1.098-0.23,1.665
		c0.178,0.565,0.578,1.103,1.202,1.607l2.297-3.777l-0.147-0.089c-0.689-0.36-1.299-0.489-1.827-0.386
		C134.554,112.766,134.122,113.09,133.788,113.641z"/>
</g>
<path fill="none" stroke="#FFFFFF" stroke-width="2" stroke-miterlimit="10" d="M119.212,71.612
	c1.128,3.595,1.737,7.419,1.737,11.386c0,20.959-16.99,37.95-37.949,37.95s-37.949-16.991-37.949-37.95
	c0-20.958,16.99-37.949,37.949-37.949c14.844,0,27.696,8.521,33.934,20.939c0.211,0.421,0.416,0.847,0.611,1.277l0.09,0.176
	l-34.315,34.314L59.854,78.291"/>
</svg>
