<?xml version="1.0" encoding="utf-8"?>
<!-- Generator: Adobe Illustrator 16.0.0, SVG Export Plug-In . SVG Version: 6.00 Build 0)  -->
<!DOCTYPE svg PUBLIC "-//W3C//DTD SVG 1.1//EN" "http://www.w3.org/Graphics/SVG/1.1/DTD/svg11.dtd">
<svg version="1.1" id="Layer_1" xmlns="http://www.w3.org/2000/svg" xmlns:xlink="http://www.w3.org/1999/xlink" x="0px" y="0px"
	 width="166px" height="166px" viewBox="0 0 166 166" enable-background="new 0 0 166 166" xml:space="preserve">
<circle fill="#3EC694" cx="83" cy="82.998" r="80"/>
<g>
	<path fill="#FFFFFF" d="M39.828,54.882l-1.223,1.972l-12.465-7.728l1.222-1.973L39.828,54.882z"/>
	<path fill="#FFFFFF" d="M35.639,39.157c-0.259-0.25-0.395-0.538-0.408-0.865c-0.013-0.328,0.125-0.643,0.417-0.945
		c0.292-0.302,0.602-0.454,0.932-0.454c0.33,0,0.624,0.124,0.883,0.374c0.254,0.245,0.386,0.531,0.395,0.859
		s-0.132,0.643-0.424,0.945c-0.292,0.302-0.6,0.453-0.925,0.453C36.183,39.524,35.893,39.402,35.639,39.157z M46.722,46.429
		l-1.612,1.669l-7.434-7.175l1.612-1.669L46.722,46.429z"/>
	<path fill="#FFFFFF" d="M56.467,35.576c-0.215-0.353-0.524-0.534-0.927-0.542c-0.404-0.008-0.985,0.122-1.747,0.39
		s-1.432,0.432-2.016,0.488c-1.281,0.123-2.197-0.269-2.75-1.178c-0.464-0.762-0.529-1.593-0.198-2.495
		c0.331-0.901,0.992-1.652,1.982-2.254c1.055-0.642,2.066-0.898,3.034-0.771c0.968,0.128,1.703,0.607,2.209,1.439l-1.982,1.205
		c-0.232-0.381-0.567-0.612-1.002-0.693c-0.437-0.081-0.889,0.021-1.357,0.305c-0.436,0.265-0.729,0.581-0.881,0.949
		c-0.153,0.369-0.126,0.721,0.078,1.058c0.187,0.305,0.457,0.464,0.815,0.477c0.358,0.013,0.978-0.13,1.861-0.432
		c0.881-0.302,1.616-0.469,2.204-0.502c0.586-0.033,1.089,0.051,1.505,0.252c0.417,0.202,0.77,0.539,1.057,1.012
		c0.483,0.794,0.544,1.638,0.185,2.53c-0.358,0.892-1.071,1.662-2.137,2.311c-0.724,0.439-1.448,0.701-2.172,0.783
		c-0.725,0.083-1.383-0.008-1.978-0.273c-0.593-0.265-1.049-0.662-1.37-1.189l1.926-1.17c0.311,0.451,0.707,0.704,1.187,0.758
		c0.48,0.055,0.991-0.082,1.529-0.409c0.521-0.318,0.858-0.658,1.009-1.022C56.684,36.24,56.662,35.897,56.467,35.576z"/>
	<path fill="#FFFFFF" d="M66.461,20.807l0.678,2.418l1.756-0.492l0.464,1.655l-1.756,0.492l1.556,5.554
		c0.106,0.38,0.259,0.633,0.457,0.76c0.197,0.127,0.489,0.135,0.876,0.027c0.256-0.072,0.508-0.175,0.755-0.311l0.484,1.729
		c-0.47,0.284-0.94,0.492-1.412,0.624c-1.716,0.481-2.84-0.225-3.372-2.119l-1.579-5.637l-1.636,0.459L63.27,24.31l1.636-0.458
		l-0.677-2.418L66.461,20.807z"/>
	<path fill="#FFFFFF" d="M81.284,21.159l0.059,1.194c0.771-0.917,1.777-1.371,3.019-1.361c2.152,0.017,3.236,1.257,3.256,3.72
		l-0.052,6.827l-2.32-0.017l0.051-6.694c0.005-0.656-0.134-1.143-0.413-1.46c-0.281-0.316-0.743-0.478-1.386-0.482
		c-0.937-0.007-1.636,0.411-2.101,1.254l-0.056,7.352l-2.321-0.017l0.079-10.332L81.284,21.159z"/>
	<path fill="#FFFFFF" d="M102.239,26.399c-0.28-0.132-0.577-0.242-0.889-0.33c-1.023-0.288-1.823-0.089-2.4,0.595l-1.913,6.801
		l-2.234-0.628l2.799-9.945l2.133,0.599l-0.258,1.128c0.782-0.712,1.651-0.934,2.607-0.665c0.318,0.089,0.57,0.207,0.755,0.351
		L102.239,26.399z"/>
	<path fill="#FFFFFF" d="M107.601,37.758l-2.062-1.063l4.737-9.182l2.061,1.064L107.601,37.758z M111.381,25.054
		c0.165-0.319,0.402-0.532,0.712-0.64c0.31-0.107,0.651-0.064,1.023,0.128c0.374,0.193,0.608,0.447,0.704,0.763
		c0.094,0.316,0.059,0.633-0.105,0.953c-0.161,0.314-0.398,0.522-0.709,0.625c-0.312,0.103-0.653,0.058-1.026-0.135
		c-0.374-0.192-0.606-0.444-0.7-0.756S111.22,25.368,111.381,25.054z"/>
	<path fill="#FFFFFF" d="M116.551,37.021c1.044-1.2,2.162-1.923,3.352-2.166c1.189-0.243,2.253,0.043,3.189,0.857
		c0.827,0.719,1.242,1.587,1.252,2.607l3.471-3.992l1.752,1.523l-9.626,11.066l-1.584-1.378l0.614-0.882
		c-1.075,0.179-2.049-0.112-2.924-0.872c-0.912-0.794-1.33-1.804-1.256-3.03C114.865,39.529,115.452,38.285,116.551,37.021z
		 M118.17,38.696c-0.689,0.792-1.075,1.543-1.156,2.252c-0.082,0.71,0.159,1.309,0.722,1.798c0.715,0.623,1.517,0.758,2.403,0.408
		l2.896-3.329c0.22-0.904-0.026-1.668-0.743-2.29c-0.566-0.493-1.199-0.649-1.896-0.467C119.696,37.25,118.955,37.792,118.17,38.696
		z"/>
	<path fill="#FFFFFF" d="M126.492,55.871c-0.79-1.241-1.039-2.495-0.749-3.763c0.29-1.267,1.086-2.315,2.386-3.142l0.242-0.154
		c0.869-0.554,1.754-0.88,2.651-0.981c0.897-0.1,1.731,0.032,2.499,0.396c0.768,0.364,1.389,0.918,1.864,1.666
		c0.755,1.186,0.961,2.344,0.616,3.473c-0.346,1.129-1.212,2.135-2.598,3.017l-0.789,0.502l-3.625-5.695
		c-0.682,0.517-1.099,1.119-1.248,1.808c-0.15,0.688-0.022,1.352,0.384,1.991c0.57,0.896,1.399,1.396,2.482,1.499l-0.335,1.696
		c-0.743-0.018-1.443-0.226-2.103-0.626S126.953,56.596,126.492,55.871z M133.81,50.884c-0.341-0.537-0.805-0.851-1.392-0.942
		c-0.586-0.091-1.244,0.031-1.973,0.368l2.374,3.729l0.144-0.092c0.629-0.46,1.014-0.949,1.154-1.469
		C134.258,51.958,134.154,51.426,133.81,50.884z"/>
</g>
<g>
	<path fill="#FFFFFF" d="M37.042,130.931c-0.825,0.059-1.658-0.133-2.502-0.575c-0.844-0.443-1.642-1.088-2.394-1.937
		c-0.773-0.871-1.26-1.817-1.46-2.84c-0.201-1.022-0.095-2.042,0.318-3.059c0.412-1.017,1.103-1.968,2.071-2.853l0.814-0.723
		c1.572-1.394,3.133-2.105,4.683-2.138c1.551-0.03,2.924,0.628,4.12,1.976c1.027,1.156,1.555,2.33,1.585,3.52
		c0.03,1.191-0.431,2.333-1.385,3.425l-1.571-1.771c1.074-1.312,1.057-2.594-0.054-3.847c-0.719-0.809-1.556-1.167-2.511-1.071
		c-0.955,0.094-2.002,0.634-3.14,1.617l-0.798,0.708c-1.121,0.995-1.781,2.003-1.98,3.027c-0.2,1.024,0.075,1.956,0.823,2.8
		c0.819,0.924,1.61,1.396,2.374,1.416l2.025-1.795l-1.9-2.143l1.371-1.217l3.499,3.942L37.042,130.931z"/>
	<path fill="#FFFFFF" d="M48.894,141.846c0.017-0.221,0.111-0.541,0.281-0.96c-1.034,0.264-2.004,0.114-2.913-0.45
		c-0.881-0.548-1.444-1.246-1.688-2.095c-0.244-0.849-0.136-1.644,0.324-2.385c0.581-0.935,1.375-1.438,2.38-1.505
		c1.005-0.068,2.154,0.299,3.447,1.102l1.208,0.751l0.358-0.576c0.282-0.454,0.381-0.896,0.296-1.327
		c-0.084-0.432-0.386-0.809-0.905-1.13c-0.449-0.28-0.886-0.396-1.312-0.35c-0.426,0.046-0.746,0.241-0.961,0.589l-1.971-1.226
		c0.299-0.481,0.738-0.833,1.317-1.053c0.58-0.221,1.218-0.28,1.914-0.176c0.697,0.103,1.383,0.364,2.059,0.784
		c1.027,0.639,1.687,1.406,1.977,2.302s0.152,1.816-0.413,2.763l-2.459,3.957c-0.491,0.789-0.771,1.488-0.842,2.097l-0.085,0.137
		L48.894,141.846z M47.61,139.08c0.39,0.242,0.814,0.376,1.275,0.399c0.461,0.024,0.876-0.069,1.249-0.28l1.028-1.654l-1.062-0.66
		c-0.73-0.455-1.358-0.668-1.884-0.643s-0.933,0.271-1.222,0.736c-0.235,0.377-0.297,0.757-0.185,1.139
		C46.922,138.498,47.188,138.818,47.61,139.08z"/>
	<path fill="#FFFFFF" d="M67.214,140.752c-0.273-0.145-0.564-0.268-0.873-0.37c-1.009-0.335-1.817-0.175-2.424,0.482l-2.228,6.706
		l-2.202-0.731l3.257-9.805l2.102,0.697l-0.31,1.116c0.814-0.676,1.692-0.857,2.636-0.545c0.313,0.105,0.559,0.234,0.737,0.387
		L67.214,140.752z"/>
	<path fill="#FFFFFF" d="M79.091,150.92c-0.084-0.205-0.146-0.533-0.183-0.983c-0.803,0.702-1.737,1.007-2.802,0.913
		c-1.034-0.09-1.852-0.459-2.453-1.105c-0.602-0.647-0.865-1.405-0.788-2.275c0.096-1.096,0.578-1.902,1.444-2.418
		c0.866-0.514,2.057-0.705,3.573-0.572l1.417,0.125l0.059-0.677c0.046-0.532-0.065-0.972-0.334-1.317
		c-0.271-0.348-0.71-0.547-1.319-0.601c-0.526-0.046-0.969,0.048-1.328,0.282c-0.359,0.232-0.556,0.552-0.592,0.959l-2.312-0.203
		c0.05-0.564,0.283-1.076,0.701-1.535c0.417-0.458,0.959-0.798,1.628-1.021c0.668-0.222,1.398-0.299,2.191-0.229
		c1.205,0.106,2.14,0.493,2.803,1.161c0.663,0.67,0.957,1.553,0.879,2.651l-0.407,4.642c-0.082,0.926-0.016,1.676,0.196,2.25
		l-0.015,0.162L79.091,150.92z M76.697,149.033c0.457,0.039,0.895-0.034,1.318-0.221c0.422-0.187,0.75-0.458,0.987-0.814l0.17-1.939
		l-1.246-0.11c-0.856-0.075-1.513,0.019-1.971,0.277c-0.458,0.261-0.71,0.664-0.757,1.209c-0.039,0.444,0.077,0.811,0.349,1.099
		C75.819,148.824,76.202,148.99,76.697,149.033z"/>
	<path fill="#FFFFFF" d="M91.383,140.071l0.277,1.161c0.588-1.043,1.493-1.676,2.714-1.896c2.118-0.383,3.415,0.635,3.89,3.053
		l1.215,6.718l-2.283,0.413l-1.191-6.587c-0.115-0.646-0.342-1.099-0.676-1.358c-0.335-0.259-0.818-0.331-1.451-0.217
		c-0.922,0.166-1.532,0.707-1.832,1.622l1.308,7.235l-2.283,0.412l-1.839-10.168L91.383,140.071z"/>
	<path fill="#FFFFFF" d="M106.128,133.078l1.015,2.297l1.668-0.736l0.695,1.57l-1.668,0.738l2.332,5.275
		c0.16,0.361,0.346,0.589,0.56,0.687c0.214,0.097,0.504,0.065,0.87-0.098c0.244-0.107,0.479-0.247,0.703-0.415l0.727,1.642
		c-0.424,0.348-0.859,0.62-1.309,0.818c-1.63,0.721-2.843,0.181-3.638-1.618l-2.368-5.354l-1.554,0.688l-0.695-1.571l1.555-0.688
		l-1.015-2.298L106.128,133.078z"/>
	<path fill="#FFFFFF" d="M113.121,129.008c-0.205-0.297-0.281-0.606-0.23-0.93c0.052-0.324,0.25-0.604,0.596-0.844
		s0.681-0.324,1.004-0.261c0.323,0.065,0.588,0.246,0.791,0.542c0.201,0.291,0.273,0.596,0.218,0.92
		c-0.056,0.323-0.257,0.604-0.603,0.842c-0.346,0.239-0.678,0.326-0.997,0.262S113.321,129.297,113.121,129.008z M122.547,138.326
		l-1.91,1.318l-5.869-8.503l1.91-1.317L122.547,138.326z"/>
	<path fill="#FFFFFF" d="M133.322,128.995c-0.999,1.079-2.148,1.64-3.448,1.681s-2.517-0.461-3.647-1.508l-0.209-0.195
		c-0.757-0.699-1.299-1.471-1.624-2.314s-0.409-1.682-0.253-2.518c0.157-0.836,0.536-1.577,1.137-2.227
		c0.956-1.033,2.023-1.525,3.203-1.479s2.373,0.628,3.578,1.742l0.686,0.637l-4.584,4.955c0.674,0.527,1.361,0.777,2.065,0.748
		c0.704-0.031,1.313-0.322,1.828-0.88c0.722-0.778,0.994-1.708,0.817-2.781l1.726-0.106c0.173,0.722,0.149,1.453-0.069,2.191
		C134.307,127.68,133.906,128.364,133.322,128.995z M126.638,123.186c-0.433,0.467-0.618,0.996-0.557,1.586
		c0.061,0.59,0.347,1.194,0.857,1.814l3.003-3.244l-0.127-0.117c-0.604-0.489-1.176-0.738-1.714-0.74
		C127.562,122.48,127.074,122.714,126.638,123.186z"/>
</g>
<path fill="none" stroke="#FFFFFF" stroke-width="2" stroke-miterlimit="10" d="M119.212,71.612
	c1.128,3.595,1.737,7.419,1.737,11.386c0,20.959-16.99,37.95-37.949,37.95s-37.949-16.991-37.949-37.95
	c0-20.958,16.99-37.949,37.949-37.949c14.844,0,27.696,8.521,33.934,20.939c0.211,0.421,0.416,0.847,0.611,1.277l0.09,0.176
	l-34.315,34.314L59.854,78.291"/>
</svg>
