<svg xmlns="http://www.w3.org/2000/svg" width="44" height="44" viewBox="-74 -67 44 44"><desc>  Created with Sketch.</desc><g fill="none"><g fill="#FFF"><path d="M-52-23C-64.1-23-74-32.9-74-45 -74-57.1-64.1-67-52-67 -39.9-67-30-57.1-30-45 -30-32.9-39.9-23-52-23L-52-23 -52-23 -52-23ZM-52-65.5C-63.3-65.5-72.5-56.3-72.5-45 -72.5-33.7-63.3-24.5-52-24.5 -40.7-24.5-31.5-33.7-31.5-45 -31.5-56.3-40.7-65.5-52-65.5L-52-65.5 -52-65.5 -52-65.5Z"/><path d="M-42.3-47.9C-42.4-48.1-42.5-48.2-42.7-48.3L-48.9-49.1 -51.7-54.7C-51.8-54.9-51.9-55-52.2-55L-52.2-55C-52.4-55-52.6-54.9-52.6-54.7L-55.4-49.1 -61.5-48.2C-61.7-48.2-61.9-48-62-47.8 -62-47.6-62-47.4-61.8-47.3L-57.4-42.9 -58.4-36.8C-58.4-36.6-58.4-36.4-58.2-36.3 -58.1-36.2-58-36.2-57.9-36.2L-57.6-36.2 -52.1-39.1 -46.6-36.3C-46.5-36.2-46.4-36.2-46.4-36.2L-46.4-36.2C-46.1-36.2-45.8-36.5-45.8-36.8 -45.8-36.8-45.8-36.8-45.8-36.9L-46.9-43 -42.4-47.3C-42.3-47.5-42.2-47.7-42.3-47.9L-42.3-47.9 -42.3-47.9ZM-47.8-43.5C-48-43.4-48-43.2-48-43.1L-47.1-37.7 -51.9-40.2C-52-40.3-52.2-40.3-52.4-40.2L-57.1-37.7 -56.2-43C-56.2-43.2-56.3-43.4-56.4-43.5L-60.3-47.3 -54.9-48.1C-54.8-48.1-54.6-48.2-54.5-48.4L-52.2-53.2 -49.7-48.4C-49.7-48.2-49.5-48.1-49.3-48.1L-44-47.3 -47.8-43.5 -47.8-43.5 -47.8-43.5Z"/></g></g></svg>
