
<svg width="36px" height="36px" viewBox="0 0 36 36" version="1.1" xmlns="http://www.w3.org/2000/svg" xmlns:xlink="http://www.w3.org/1999/xlink">
    <!-- Generator: Sketch 40.1 (33804) - http://www.bohemiancoding.com/sketch -->
    <desc>Created with Sketch.</desc>
    <defs>
        <circle id="path-1" cx="18" cy="18" r="18"></circle>
        <mask id="mask-2" maskContentUnits="userSpaceOnUse" maskUnits="objectBoundingBox" x="0" y="0" width="36" height="36" fill="white">
            <use xlink:href="#path-1"></use>
        </mask>
    </defs>
    <g id="facebook" stroke="none" stroke-width="1" fill="none" fill-rule="evenodd">
        <use id="circle" stroke="#FFFFFF" mask="url(#mask-2)" stroke-width="2" xlink:href="#path-1"></use>
        <path d="M19.3649788,11.7 C17.513178,11.7 16.316463,12.9277899 16.316463,14.8281204 L16.316463,16.2703934 L14.6591781,16.2703934 C14.515969,16.2703934 14.4,16.3864946 14.4,16.5297037 L14.4,18.6193928 C14.4,18.7626019 14.5161012,18.8785709 14.6591781,18.8785709 L16.316463,18.8785709 L16.316463,24.1515219 C16.316463,24.294731 16.432432,24.4107 16.5756411,24.4107 L18.7379265,24.4107 C18.8811356,24.4107 18.9971046,24.2945988 18.9971046,24.1515219 L18.9971046,18.8785709 L20.9348572,18.8785709 C21.0780663,18.8785709 21.1940353,18.7626019 21.1940353,18.6193928 L21.1948287,16.5297037 C21.1948287,16.4609422 21.1674563,16.3950898 21.1189266,16.3464278 C21.0703968,16.2977658 21.0042799,16.2703934 20.9355184,16.2703934 L18.9971046,16.2703934 L18.9971046,15.0477606 C18.9971046,14.460114 19.1371401,14.1617948 19.902641,14.1617948 L21.0130074,14.1613981 C21.1560842,14.1613981 21.2720532,14.0452969 21.2720532,13.90222 L21.2720532,11.9618227 C21.2720532,11.8188781 21.1562165,11.7029091 21.0132718,11.7026447 L19.3649788,11.7 Z" id="Shape" fill="#FFFFFF"></path>
    </g>
</svg>