<?xml version="1.0" encoding="utf-8"?>
<!-- Generator: Adobe Illustrator 16.0.0, SVG Export Plug-In . SVG Version: 6.00 Build 0)  -->
<!DOCTYPE svg PUBLIC "-//W3C//DTD SVG 1.1//EN" "http://www.w3.org/Graphics/SVG/1.1/DTD/svg11.dtd">
<svg version="1.1" id="Layer_1" xmlns="http://www.w3.org/2000/svg" xmlns:xlink="http://www.w3.org/1999/xlink" x="0px" y="0px"
	 width="65px" height="65px" viewBox="0 0 65 65" enable-background="new 0 0 65 65" xml:space="preserve">
<g>
	<path fill="#1D1D1B" d="M61.637,45.442c1.666-3.838,2.511-7.919,2.511-12.13c0-16.785-13.655-30.44-30.439-30.44
		c-16.788,0-30.446,13.655-30.446,30.44c0,16.784,13.658,30.438,30.446,30.438c9.587,0,18.729-4.602,24.454-12.31l2.135-2.873
		H33.941l1.233-1.744c5.01-7.091,11.059-15.718,11.424-16.561c0.759-1.767,1.144-3.617,1.144-5.5
		c0-7.738-6.297-14.033-14.037-14.033c-7.741,0-14.039,6.295-14.039,14.033c0,2.014,0.437,3.98,1.309,5.866
		c0.347,0.726,6.315,9.207,11.26,16.195l1.233,1.743H17.841v3.6h34.978c-5.019,5.113-11.803,7.983-19.11,7.983
		c-14.803,0-26.847-12.04-26.847-26.839c0-14.8,12.043-26.841,26.847-26.841c14.8,0,26.84,12.041,26.84,26.841
		c0,3.715-0.745,7.313-2.214,10.696L61.637,45.442z M24.206,29.04c-0.624-1.371-0.94-2.809-0.94-4.276
		c0-5.753,4.683-10.434,10.439-10.434c5.756,0,10.438,4.681,10.438,10.434c0,1.392-0.286,2.764-0.809,3.989
		c-0.455,0.829-5.656,8.271-9.631,13.912C29.81,37.151,24.747,29.938,24.206,29.04z"/>
	<path fill="#1D1D1B" d="M39.775,24.606c0-3.349-2.721-6.073-6.064-6.073c-3.351,0-6.077,2.725-6.077,6.073s2.726,6.072,6.077,6.072
		C37.055,30.679,39.775,27.955,39.775,24.606z M31.234,24.606c0-1.364,1.111-2.474,2.477-2.474c1.358,0,2.465,1.109,2.465,2.474
		c0,1.363-1.106,2.473-2.465,2.473C32.345,27.079,31.234,25.97,31.234,24.606z"/>
</g>
</svg>
