<svg xmlns="http://www.w3.org/2000/svg" width="44" height="44" viewBox="-70 -64 44 44"><style>.a{fill:#FFF;}</style><desc>  Created with Sketch.</desc><g fill="none"><path d="M-48-20C-60.1-20-70-29.9-70-42 -70-54.1-60.1-64-48-64 -35.9-64-26-54.1-26-42 -26-29.9-35.9-20-48-20L-48-20 -48-20ZM-48-62.5C-59.3-62.5-68.5-53.3-68.5-42 -68.5-30.7-59.3-21.5-48-21.5 -36.7-21.5-27.5-30.7-27.5-42 -27.5-53.3-36.7-62.5-48-62.5L-48-62.5 -48-62.5Z" class="a"/><path d="M-47.4-50.5C-47.4-50.8-47.6-51-47.9-51 -48.2-51-48.4-50.8-48.4-50.5L-48.4-41.9C-49.7-41.7-50.6-40.6-50.6-39.3 -50.6-38-49.7-36.9-48.4-36.7L-48.4-32.9C-48.4-32.6-48.2-32.3-47.9-32.3 -47.6-32.3-47.4-32.6-47.4-32.9L-47.4-36.7C-46.2-36.9-45.3-38-45.3-39.3 -45.3-40.6-46.2-41.7-47.4-41.9L-47.4-50.5ZM-49.5-39.3C-49.5-40.2-48.8-40.9-47.9-40.9 -47-40.9-46.3-40.2-46.3-39.3 -46.3-38.4-47-37.7-47.9-37.7 -48.8-37.7-49.5-38.4-49.5-39.3ZM-53.8-50.5C-53.8-50.8-54-51-54.3-51 -54.6-51-54.9-50.8-54.9-50.5L-54.9-46.3C-56.1-46.1-57-45-57-43.7 -57-42.4-56.1-41.3-54.9-41.1L-54.9-32.9C-54.9-32.6-54.6-32.3-54.3-32.3 -54-32.3-53.8-32.6-53.8-32.9L-53.8-41.1C-52.6-41.3-51.7-42.4-51.7-43.7 -51.7-45-52.6-46.1-53.8-46.3L-53.8-50.5ZM-41-50.5C-41-50.8-41.2-51-41.5-51 -41.8-51-42.1-50.8-42.1-50.5L-42.1-46.3C-43.3-46.1-44.2-45-44.2-43.7 -44.2-42.4-43.3-41.3-42.1-41.1L-42.1-32.9C-42.1-32.6-41.8-32.3-41.5-32.3 -41.2-32.3-41-32.6-41-32.9L-41-41.1C-39.8-41.3-38.9-42.4-38.9-43.7 -38.9-45-39.8-46.1-41-46.3L-41-50.5Z" class="a"/></g></svg>