<svg xmlns="http://www.w3.org/2000/svg" width="44" height="44" viewBox="-68 -61 44 44"><style>.a{fill:#FFF;}</style><desc>  Created with Sketch.</desc><g fill="none"><path d="M-46-17C-58.1-17-68-26.9-68-39 -68-51.1-58.1-61-46-61 -33.9-61-24-51.1-24-39 -24-26.9-33.9-17-46-17L-46-17 -46-17ZM-46-59.5C-57.3-59.5-66.5-50.3-66.5-39 -66.5-27.7-57.3-18.5-46-18.5 -34.7-18.5-25.5-27.7-25.5-39 -25.5-50.3-34.7-59.5-46-59.5L-46-59.5 -46-59.5Z" class="a"/><path d="M-36.8-31.5C-36.5-31.5-36.2-31.8-36.2-32.1 -36.2-32.4-36.5-32.7-36.8-32.7L-41.3-32.7C-41.6-34-42.7-35-44.1-35 -45.5-35-46.6-34-46.9-32.7L-55.7-32.7C-56-32.7-56.3-32.4-56.3-32.1 -56.3-31.8-56-31.5-55.7-31.5L-46.9-31.5C-46.6-30.2-45.5-29.2-44.1-29.2 -42.7-29.2-41.6-30.2-41.3-31.5L-36.8-31.5 -36.8-31.5Z" class="a"/><path d="M-36.8-45.3C-36.5-45.3-36.2-45.5-36.2-45.9 -36.2-46.2-36.5-46.4-36.8-46.4L-41.3-46.4C-41.6-47.7-42.7-48.7-44.1-48.7 -45.5-48.7-46.6-47.7-46.9-46.4L-55.7-46.4C-56-46.4-56.3-46.2-56.3-45.9 -56.3-45.5-56-45.3-55.7-45.3L-46.9-45.3C-46.6-44-45.5-43-44.1-43 -42.7-43-41.6-44-41.3-45.3L-36.8-45.3 -36.8-45.3Z" class="a"/><path d="M-48.8-40.7C-47.9-40.7-47.1-39.9-47.1-39 -47.1-38-47.9-37.2-48.8-37.2 -49.8-37.2-50.5-38-50.5-39 -50.5-39.9-49.8-40.7-48.8-40.7L-48.8-40.7Z" class="a"/><path d="M-36.8-38.4C-36.5-38.4-36.2-38.6-36.2-39 -36.2-39.3-36.5-39.5-36.8-39.5L-46-39.5C-46.3-40.8-47.4-41.8-48.8-41.8 -50.2-41.8-51.4-40.8-51.6-39.5L-55.7-39.5C-56-39.5-56.3-39.3-56.3-39 -56.3-38.6-56-38.4-55.7-38.4L-51.6-38.4C-51.4-37.1-50.2-36.1-48.8-36.1 -47.4-36.1-46.3-37.1-46-38.4L-36.8-38.4 -36.8-38.4Z" class="a"/></g></svg>