<svg xmlns="http://www.w3.org/2000/svg" width="44" height="44" viewBox="19 24 44 44"><style>.a{fill:#FFF;}</style><desc>  Created with Sketch.</desc><g fill="none"><path d="M41 68C28.9 68 19 58.1 19 46 19 33.9 28.9 24 41 24 53.1 24 63 33.9 63 46 63 58.1 53.1 68 41 68L41 68 41 68 41 68 41 68 41 68ZM41 25.5C29.7 25.5 20.5 34.7 20.5 46 20.5 57.3 29.7 66.5 41 66.5 52.3 66.5 61.5 57.3 61.5 46 61.5 34.7 52.3 25.5 41 25.5L41 25.5 41 25.5 41 25.5 41 25.5 41 25.5Z" class="a"/><path d="M47 47.7C46.6 47.3 46.1 47 45.6 47 45.1 47 44.7 47.3 44.3 47.7L43 48.9C42.9 48.9 42.8 48.8 42.7 48.8 42.6 48.7 42.4 48.6 42.3 48.6 41.1 47.8 40 46.8 39 45.5 38.5 44.9 38.2 44.4 37.9 43.8 38.2 43.5 38.6 43.2 38.8 42.9 39 42.8 39.1 42.7 39.2 42.6 40 41.7 40 40.7 39.2 39.8L38.1 38.7C38 38.6 37.8 38.5 37.7 38.3 37.5 38.1 37.2 37.8 37 37.6 36.6 37.2 36.1 37 35.6 37 35.1 37 34.7 37.2 34.3 37.6 34.3 37.6 34.3 37.6 34.2 37.6L32.9 39C32.4 39.5 32.1 40.1 32 40.8 31.9 42 32.3 43.1 32.5 43.8 33.2 45.6 34.1 47.2 35.6 48.9 37.4 51 39.5 52.7 41.9 53.8 42.8 54.3 44 54.8 45.4 54.9 45.5 54.9 45.6 54.9 45.7 54.9 46.6 54.9 47.4 54.6 48 53.9 48 53.9 48 53.9 48 53.9 48.2 53.6 48.4 53.4 48.7 53.2 48.9 53 49 52.8 49.2 52.6 49.6 52.2 49.8 51.7 49.8 51.3 49.8 50.8 49.6 50.3 49.2 49.9L47 47.7 47 47.7ZM48.4 51.9C48.4 51.9 48.4 51.9 48.4 51.9 48.3 52.1 48.1 52.2 47.9 52.4 47.7 52.6 47.4 52.9 47.2 53.2 46.8 53.6 46.3 53.8 45.7 53.8 45.6 53.8 45.5 53.8 45.5 53.8 44.3 53.7 43.2 53.3 42.4 52.9 40.1 51.8 38.1 50.2 36.4 48.2 35.1 46.6 34.2 45.1 33.5 43.4 33.2 42.4 33 41.7 33.1 40.9 33.1 40.5 33.3 40.1 33.7 39.7L35 38.4C35.2 38.2 35.4 38.1 35.6 38.1 35.9 38.1 36.1 38.2 36.2 38.4 36.2 38.4 36.2 38.4 36.2 38.4 36.5 38.6 36.7 38.8 36.9 39.1 37.1 39.2 37.2 39.3 37.3 39.5L38.4 40.6C38.8 41 38.8 41.4 38.4 41.8 38.3 41.9 38.2 42.1 38.1 42.2 37.7 42.5 37.4 42.8 37.1 43.1 37.1 43.1 37.1 43.2 37.1 43.2 36.7 43.5 36.8 43.8 36.8 44.1 36.8 44.1 36.9 44.1 36.9 44.1 37.1 44.8 37.5 45.4 38.1 46.2L38.2 46.2C39.3 47.6 40.4 48.6 41.7 49.5 41.9 49.6 42 49.7 42.2 49.7 42.4 49.8 42.5 49.9 42.6 49.9 42.6 50 42.6 50 42.7 50 42.8 50 42.9 50.1 43 50.1 43.4 50.1 43.6 49.9 43.7 49.8L45 48.4C45.2 48.3 45.4 48.1 45.6 48.1 45.9 48.1 46.1 48.3 46.2 48.4 46.2 48.4 46.2 48.4 46.2 48.4L48.4 50.6C48.8 51 48.8 51.5 48.4 51.9L48.4 51.9Z" class="a"/></g></svg>
