<svg width="36" height="36" viewBox="0 0 36 36" xmlns="http://www.w3.org/2000/svg" xmlns:xlink="http://www.w3.org/1999/xlink">
  <defs>
    <circle id="a" cx="18" cy="18" r="18"/>
    <mask id="b" x="0" y="0" width="36" height="36" fill="#fff">
      <use xlink:href="#a"/>
    </mask>
  </defs>
  <g fill="none" fill-rule="evenodd">
    <use stroke="#FFF" mask="url(#b)" stroke-width="2" xlink:href="#a"/>
    <svg width="36" height="36" viewBox="56 0 36 36" xmlns="http://www.w3.org/2000/svg" xmlns:xlink="http://www.w3.org/1999/xlink">
      <g transform="translate(56)">
        <use stroke="#FFF" mask="url(#b)" stroke-width="2" xlink:href="#a"/>
        <path d="M23.8583 13.042c-.2945-.2948-.6475-.442-1.0587-.442h-8.699c-.4113 0-.7642.1473-1.0588.442-.2946.2944-.4418.6473-.4418 1.0585v8.699c0 .411.1472.764.4418 1.0586.2946.295.6476.442 1.059.442h8.6987c.411 0 .7642-.147 1.0588-.442.2946-.294.4417-.647.4417-1.058v-8.699c0-.4112-.147-.764-.4417-1.0585zM16.86 16.8583c.44-.4388.969-.6584 1.5864-.6584.6223 0 1.1535.219 1.5936.658.44.439.66.9694.66 1.5914 0 .622-.22 1.1525-.66 1.5913-.44.439-.971.6586-1.5936.6586-.6175 0-1.1462-.2198-1.5863-.6587-.44-.439-.66-.9695-.66-1.5915 0-.622.22-1.1526.66-1.5916zm6.54 5.9997c0 .154-.05.2828-.1497.3865-.1.1036-.219.1555-.3576.1555H14.007c-.144 0-.2646-.052-.3615-.1555-.097-.1035-.1455-.2325-.1455-.3864V17.1h1.172c-.1108.3733-.1662.7613-.1662 1.164 0 1.1377.388 2.1075 1.1637 2.9103.776.8026 1.7096 1.204 2.8012 1.204.7204 0 1.3854-.1837 1.995-.551.6097-.3674 1.0915-.8664 1.4464-1.4973.355-.631.532-1.3196.532-2.066 0-.4027-.055-.7906-.166-1.164H23.4v5.758zm0-7.968c0 .115-.0385.212-.1155.2912-.077.0792-.171.1188-.2827.1188H21.998c-.1114 0-.2058-.0396-.2827-.1188-.077-.0792-.1153-.1763-.1153-.291V13.91c0-.111.0384-.207.1153-.2882.077-.0812.1713-.1218.2827-.1218h1.0038c.1116 0 .2058.0406.2827.1218.077.0812.1155.1772.1155.2882v.98z" fill="#FFF"/>
      </g>
    </svg>
  </g>
</svg>
