<?xml version="1.0" encoding="utf-8"?>
<!-- Generator: Adobe Illustrator 16.0.0, SVG Export Plug-In . SVG Version: 6.00 Build 0)  -->
<!DOCTYPE svg PUBLIC "-//W3C//DTD SVG 1.1//EN" "http://www.w3.org/Graphics/SVG/1.1/DTD/svg11.dtd">
<svg version="1.1" id="Layer_1" xmlns="http://www.w3.org/2000/svg" xmlns:xlink="http://www.w3.org/1999/xlink" x="0px" y="0px"
	 width="65px" height="65px" viewBox="0 0 65 65" enable-background="new 0 0 65 65" xml:space="preserve">
<g>
	<path fill="#1D1D1B" d="M61.726,45.442c1.666-3.838,2.511-7.919,2.511-12.13c0-16.785-13.655-30.44-30.439-30.44
		c-16.788,0-30.446,13.655-30.446,30.44c0,16.784,13.658,30.438,30.446,30.438c9.588,0,18.729-4.602,24.455-12.31l2.134-2.873
		H30.897l1.232-1.744c2.175-3.078,4.544-6.443,6.561-9.338h11.861l-3.742,3.741l2.545,2.547l8.083-8.081l-8.082-8.089l-2.547,2.545
		l3.735,3.737H41.18c1.335-1.948,2.24-3.313,2.374-3.623c0.76-1.767,1.145-3.617,1.145-5.5c0-7.738-6.297-14.033-14.038-14.033
		s-14.038,6.295-14.038,14.033c0,2.014,0.437,3.98,1.309,5.866c0.347,0.726,6.314,9.207,11.26,16.195l1.234,1.743H17.93v3.6h34.977
		c-5.018,5.113-11.803,7.983-19.109,7.983c-14.803,0-26.847-12.04-26.847-26.839c0-14.8,12.044-26.841,26.847-26.841
		c14.8,0,26.84,12.041,26.84,26.841c0,3.715-0.745,7.313-2.214,10.696L61.726,45.442z M21.162,29.04
		c-0.624-1.371-0.94-2.809-0.94-4.276c0-5.753,4.683-10.434,10.438-10.434s10.438,4.681,10.438,10.434
		c0,1.392-0.287,2.764-0.81,3.989c-0.227,0.413-1.636,2.474-3.482,5.134h-6.184v3.6h3.673c-1.219,1.741-2.479,3.535-3.637,5.179
		C26.765,37.151,21.702,29.938,21.162,29.04z"/>
	<path fill="#1D1D1B" d="M36.73,24.606c0-3.349-2.721-6.073-6.064-6.073c-3.351,0-6.076,2.725-6.076,6.073s2.726,6.072,6.076,6.072
		C34.01,30.679,36.73,27.955,36.73,24.606z M28.189,24.606c0-1.364,1.111-2.474,2.477-2.474c1.359,0,2.465,1.109,2.465,2.474
		c0,1.363-1.105,2.473-2.465,2.473C29.301,27.079,28.189,25.97,28.189,24.606z"/>
</g>
</svg>
