<svg xmlns="http://www.w3.org/2000/svg" width="44" height="44" viewBox="21 27 44 44"><style>.a{fill:#FFF;}</style><desc>  Created with Sketch.</desc><g fill="none"><path d="M43 71C30.9 71 21 61.1 21 49 21 36.9 30.9 27 43 27 55.1 27 65 36.9 65 49 65 61.1 55.1 71 43 71L43 71 43 71 43 71 43 71 43 71ZM43 28.5C31.7 28.5 22.5 37.7 22.5 49 22.5 60.3 31.7 69.5 43 69.5 54.3 69.5 63.5 60.3 63.5 49 63.5 37.7 54.3 28.5 43 28.5L43 28.5 43 28.5 43 28.5 43 28.5 43 28.5Z" class="a"/><g class="a"><path d="M52.3 41.2L48.8 41.2C48.4 41.2 48.2 41.5 48.2 41.8L48.2 44.2 45.2 44.2C44.9 44.2 44.6 44.5 44.6 44.8L44.6 47.7 41.9 47.7C41.6 47.7 41.3 48 41.3 48.3L41.3 51.4 38.5 51.4C38.1 51.4 37.9 51.7 37.9 52L37.9 54.7 34.6 54.7C34.3 54.7 34 54.9 34 55.3 34 55.6 34.3 55.9 34.6 55.9L38.5 55.9C38.8 55.9 39 55.6 39 55.3L39 52.6 41.9 52.6C42.3 52.6 42.5 52.3 42.5 52L42.5 48.9 45.2 48.9C45.5 48.9 45.8 48.6 45.8 48.3L45.8 45.4 48.8 45.4C49.1 45.4 49.4 45.2 49.4 44.8L49.4 42.4 52.3 42.4C52.7 42.4 52.9 42.1 52.9 41.8 52.9 41.5 52.7 41.2 52.3 41.2L52.3 41.2Z"/></g></g></svg>
