<svg xmlns="http://www.w3.org/2000/svg" width="44" height="44" viewBox="-68 -61 44 44"><style>.a{fill:#FFF;}</style><desc>  Created with Sketch.</desc><g fill="none"><path d="M-46-17C-58.1-17-68-26.9-68-39 -68-51.1-58.1-61-46-61 -33.9-61-24-51.1-24-39 -24-26.9-33.9-17-46-17L-46-17 -46-17ZM-46-59.5C-57.3-59.5-66.5-50.3-66.5-39 -66.5-27.7-57.3-18.5-46-18.5 -34.7-18.5-25.5-27.7-25.5-39 -25.5-50.3-34.7-59.5-46-59.5L-46-59.5 -46-59.5Z" class="a"/><g class="a"><path d="M-43-41L-46.7-37.3 -48-38.6C-48.3-38.9-48.7-38.9-48.9-38.6 -49.1-38.4-49.1-38-48.9-37.8L-47.2-36C-47-35.9-46.9-35.9-46.7-35.9 -46.6-35.9-46.4-35.9-46.3-36L-42.2-40.2C-41.9-40.4-41.9-40.8-42.2-41 -42.4-41.3-42.8-41.3-43-41L-43-41Z"/><path d="M-36.1-42.7L-36.1-45.6C-36.1-46.1-36.2-46.6-37.1-46.7 -37.2-46.8-37.4-46.8-37.6-46.8 -38.1-46.9-38.6-46.9-39.1-47 -40.9-47.4-42.7-48.3-44.7-49.7 -45-49.9-45.2-50-45.5-50 -45.8-50-46.1-49.8-46.3-49.7 -49-47.8-51.4-46.9-53.9-46.7 -54.7-46.7-55-46.3-55-45.6L-55-43.7C-55-41.9-55-40.1-55-38.3 -55-37.7-54.9-37.1-54.7-36.4 -54.4-34.9-53.6-33.5-52.3-32.2 -50.6-30.5-48.6-29.2-45.9-28.2 -45.8-28.2-45.7-28.1-45.5-28.1 -45.4-28.1-45.2-28.2-45-28.3 -44.9-28.3-44.7-28.4-44.6-28.5 -43.9-28.7-43.3-29-42.6-29.4 -40.5-30.5-38.9-31.8-37.7-33.4 -36.7-34.8-36.2-36.2-36.1-37.7 -36.1-38-36.1-38.3-36.1-38.6L-36.1-38.6 -36.1-41.6 -36.1-41.6 -36.1-41.7 -36.1-42.7 -36.1-42.7ZM-37.3-41.7L-37.3-41.7 -37.3-41.7 -37.3-41.6 -37.3-38.7 -37.3-38.7 -37.3-38.6C-37.3-38.3-37.3-38-37.3-37.7 -37.4-36.5-37.8-35.3-38.7-34.1 -39.8-32.7-41.2-31.5-43.2-30.4 -43.8-30.1-44.4-29.8-45.1-29.6 -45.2-29.5-45.4-29.4-45.5-29.4L-45.5-29.4C-48-30.3-49.9-31.5-51.4-33 -52.6-34.2-53.3-35.4-53.6-36.7 -53.7-37.2-53.7-37.8-53.8-38.3 -53.8-40.1-53.8-41.9-53.8-43.7L-53.8-45.5C-51-45.7-48.5-46.7-45.6-48.7 -45.6-48.7-45.6-48.7-45.5-48.7 -45.5-48.7-45.5-48.7-45.4-48.7 -43.3-47.2-41.3-46.3-39.3-45.8 -38.8-45.7-38.2-45.6-37.7-45.6 -37.6-45.6-37.4-45.5-37.3-45.5L-37.3-42.8 -37.3-41.7 -37.3-41.7Z"/></g></g></svg>