<svg xmlns="http://www.w3.org/2000/svg" width="44" height="44" viewBox="-68 -61 44 44"><style>.a{fill:#FFF;}</style><desc>  Created with Sketch.</desc><g fill="none"><path d="M-46-17C-58.1-17-68-26.9-68-39 -68-51.1-58.1-61-46-61 -33.9-61-24-51.1-24-39 -24-26.9-33.9-17-46-17L-46-17 -46-17ZM-46-59.5C-57.3-59.5-66.5-50.3-66.5-39 -66.5-27.7-57.3-18.5-46-18.5 -34.7-18.5-25.5-27.7-25.5-39 -25.5-50.3-34.7-59.5-46-59.5L-46-59.5 -46-59.5Z" class="a"/><g class="a"><path d="M-47.9-37L-44.8-36.1C-44.8-36-44.8-36-44.8-36 -44.9-35.8-45.1-35.6-45.4-35.6 -46.4-35.4-48.1-35.5-48.1-35.5 -48.3-35.6-48.6-35.4-48.6-35.1 -48.6-34.8-48.4-34.6-48.1-34.6 -48.1-34.6-46.3-34.5-45.2-34.7 -44.1-34.8-43.8-35.8-43.8-36.4 -43.9-36.6-44-36.8-44.2-36.9L-47.6-37.9C-49.3-38.4-51.2-37.5-51.3-37.4 -51.3-37.4-51.3-37.4-51.3-37.4L-54.8-35.3C-55-35.2-55.1-34.9-54.9-34.7 -54.8-34.5-54.7-34.4-54.5-34.4 -54.4-34.4-54.4-34.5-54.3-34.5L-50.9-36.6C-50.7-36.7-49.2-37.4-47.9-37L-47.9-37Z"/><path d="M-36.1-37.8C-36.4-38.3-37.2-39.1-38.5-38.5 -39.7-38-42.3-36.7-42.3-36.7 -42.6-36.6-42.7-36.3-42.5-36.1 -42.4-35.9-42.1-35.8-41.9-35.9 -41.9-35.9-39.3-37.1-38.1-37.6 -37.8-37.8-37.5-37.8-37.3-37.6 -37.3-37.6-37.3-37.6-37.2-37.6L-43.7-32.9C-44.1-32.6-44.7-32.5-45.3-32.5L-51-33.5C-51.1-33.5-51.2-33.4-51.4-33.4L-52.8-32.1C-53-32-53-31.7-52.9-31.5 -52.8-31.4-52.6-31.3-52.5-31.3 -52.4-31.3-52.3-31.3-52.2-31.4L-50.9-32.5 -45.4-31.6C-44.6-31.5-43.8-31.7-43.1-32.2L-36.3-37.2C-36.1-37.3-36-37.6-36.1-37.8L-36.1-37.8Z"/><path d="M-44.9-38.3C-44.1-38.3-43.4-38.6-42.9-39.1 -41.8-40.2-41.8-41.9-42.9-43 -43.4-43.5-44.1-43.8-44.9-43.8 -45.6-43.8-46.3-43.5-46.8-43 -47.9-41.9-47.9-40.2-46.8-39.1 -46.3-38.6-45.6-38.3-44.9-38.3L-44.9-38.3ZM-46.2-42.4C-45.8-42.7-45.4-42.9-44.9-42.9 -44.4-42.9-43.9-42.7-43.6-42.4 -42.9-41.6-42.9-40.5-43.6-39.8 -43.9-39.5-44.4-39.3-44.9-39.3 -45.4-39.3-45.8-39.5-46.2-39.8 -46.9-40.5-46.9-41.6-46.2-42.4L-46.2-42.4Z"/><path d="M-41.6-43.7C-41.1-43.7-40.5-43.9-40.1-44.3 -39.3-45.2-39.3-46.5-40.1-47.4 -40.5-47.8-41.1-48-41.6-48 -42.2-48-42.8-47.8-43.2-47.4 -44-46.5-44-45.2-43.2-44.3 -42.8-43.9-42.2-43.7-41.6-43.7L-41.6-43.7ZM-42.5-46.7C-42.3-46.9-42-47.1-41.6-47.1 -41.3-47.1-41-46.9-40.8-46.7 -40.3-46.2-40.3-45.5-40.8-45 -41-44.8-41.3-44.6-41.6-44.6 -42-44.6-42.3-44.8-42.5-45 -43-45.5-43-46.2-42.5-46.7L-42.5-46.7Z"/></g></g></svg>