
<svg width="111px" height="21px" viewBox="30 20 111 21" version="1.1" xmlns="http://www.w3.org/2000/svg" xmlns:xlink="http://www.w3.org/1999/xlink">
    <!-- Generator: Sketch 40.1 (33804) - http://www.bohemiancoding.com/sketch -->
    <desc>Created with Sketch.</desc>
    <defs></defs>
    <g id="Logo-thin" stroke="none" stroke-width="1" fill="none" fill-rule="evenodd" transform="translate(85.500000, 30.660525) scale(1, -1) translate(-85.500000, -30.660525) translate(30.000000, 21.000000)">
        <path d="M47.9749593,13.3010179 C46.2891694,9.98819218 44.6982899,6.86970684 44.4406759,6.36803746 L43.9751629,5.45960912 L44.8293567,5.02121336 L45.68807,4.58281759 L45.8417345,4.86754886 C45.9276059,5.0257329 47.1795195,7.47984528 48.6257736,10.327158 C50.0765472,13.1744707 51.2742264,15.520114 51.2923046,15.5381922 C51.3103827,15.5562704 51.7984935,12.2524837 52.3769951,8.19393322 C52.9509772,4.13538274 53.4345684,0.768322476 53.4436075,0.718607492 C53.4571661,0.646294788 53.6379479,0.533306189 54.1034609,0.293770358 C54.4514658,0.112988599 54.7587948,-0.0135586319 54.776873,0.00451954397 C54.8717834,0.108469055 61.822842,13.8298046 61.7957248,13.8569218 C61.7369707,13.9111564 60.1506107,14.7246743 60.1370521,14.7065961 C60.1325326,14.697557 58.9258143,12.3338355 57.4660016,9.45940554 C56.0016694,6.58045603 54.7904316,4.22577362 54.776873,4.22577362 C54.7633143,4.22577362 54.3113599,7.39397394 53.7690147,11.2672231 C53.2221498,15.1359528 52.7701954,18.344829 52.7611564,18.394544 C52.7430782,18.4578176 52.4990228,18.6069625 51.9295603,18.9052524 C51.486645,19.1312296 51.1070033,19.3210505 51.0844055,19.3210505 C51.0572883,19.3210505 49.6607492,16.6093241 47.9749593,13.3010179 L47.9749593,13.3010179 Z" id="Shape" fill="#FFFFFF"></path>
        <path d="M22.2587541,17.5810261 C20.1300489,17.264658 18.5843648,15.9087948 18.2363599,14.0557818 C18.1324104,13.5043974 18.1640472,12.5733713 18.3041531,12.0897801 C18.6611971,10.8469055 19.6464577,9.95203583 21.228298,9.42776873 C21.4452362,9.35545603 22.407899,9.08880293 23.3570033,8.83570847 C24.310627,8.58713355 25.2506922,8.32048046 25.440513,8.24816775 C26.3760586,7.88660423 26.9184039,7.3487785 27.0946661,6.61661238 C27.3703583,5.43249186 26.8099349,4.26644951 25.7071661,3.73314332 C25.0653909,3.42129479 24.6586319,3.34446254 23.6824104,3.34898208 C22.923127,3.34898208 22.8056189,3.36254072 22.3988599,3.47100977 C21.5582248,3.69698697 20.9345277,4.08114821 20.4238192,4.69128664 C20.2023616,4.9534202 19.8769544,5.52288274 19.7775244,5.82117264 C19.7549267,5.8889658 19.6645358,5.89800489 18.7380293,5.89800489 L17.7256515,5.89800489 L17.7482492,5.79857492 C17.8702769,5.2517101 18.1685668,4.55570033 18.5075326,4.02239414 C18.7470684,3.65179153 19.375285,3.01001629 19.7775244,2.7343241 C20.4238192,2.28688925 21.2147394,1.952443 22.0237378,1.78521987 C23.5423046,1.46885179 25.182899,1.59991857 26.4393322,2.14226384 C27.392956,2.55354235 28.2109935,3.29474756 28.6313111,4.13538274 C29.1284609,5.12064332 29.2278909,6.34543974 28.9024837,7.41205212 C28.5906352,8.41991042 27.7906759,9.27410423 26.6517508,9.80741042 C26.0687296,10.0785831 25.6077362,10.2186889 23.7728013,10.6887215 C22.8914902,10.9146987 21.9875814,11.1723127 21.7616042,11.2627036 C20.5684446,11.7327362 20.0667752,12.3609528 20.0667752,13.3914088 C20.0667752,14.0783795 20.3017915,14.6297638 20.7944218,15.0952769 C21.476873,15.7370521 22.557044,16.0398616 23.7547231,15.926873 C25.2461726,15.7867671 26.2449919,15.1359528 26.8189739,13.9337541 L27.0042752,13.5360342 L27.9895358,13.5360342 C28.7985342,13.5360342 28.9702769,13.5450733 28.9702769,13.5993078 C28.9702769,13.725855 28.7759365,14.2862785 28.6041938,14.6568811 C27.84943,16.292956 26.3715391,17.314373 24.3739007,17.5810261 C23.7773208,17.6623779 22.8056189,17.6578583 22.2587541,17.5810261 L22.2587541,17.5810261 Z" id="Shape" fill="#FFFFFF"></path>
        <polygon id="Shape" fill="#FFFFFF" points="0 9.62662866 0 1.83041531 4.97149837 1.83041531 9.94299674 1.83041531 9.94299674 2.7343241 9.94299674 3.6382329 5.96579805 3.6382329 1.98859935 3.6382329 1.98859935 10.5305375 1.98859935 17.422842 0.994299674 17.422842 0 17.422842"></polygon>
        <polygon id="Shape" fill="#FFFFFF" points="12.7903094 9.62662866 12.7903094 1.83041531 13.7846091 1.83041531 14.7789088 1.83041531 14.7789088 9.62662866 14.7789088 17.422842 13.7846091 17.422842 12.7903094 17.422842"></polygon>
        <polygon id="Shape" fill="#FFFFFF" points="30.3261401 16.5415309 30.3261401 15.6602199 33.0514251 15.6511808 35.7721906 15.6376221 35.7857492 8.7362785 35.7947883 1.83041531 36.7890879 1.83041531 37.7833876 1.83041531 37.7833876 8.74531759 37.7833876 15.6602199 40.495114 15.6602199 43.2068404 15.6602199 43.2068404 16.5415309 43.2068404 17.422842 36.7664902 17.422842 30.3261401 17.422842"></polygon>
        <path d="M66.0305375,9.62662866 L66.0305375,1.83041531 L67.0248371,1.83041531 L68.0191368,1.83041531 L68.0191368,5.12968241 L68.0191368,8.42894951 L69.4111564,8.42894951 L70.7986564,8.42894951 L73.0313111,5.12968241 L75.2639658,1.83041531 L76.3848127,1.83041531 C77.0039902,1.83041531 77.5101792,1.84397394 77.5101792,1.85753257 C77.5101792,1.88013029 73.686645,7.45724756 73.1397801,8.23008958 L72.9454397,8.50578176 L73.3386401,8.58713355 C75.648127,9.04360749 76.8864821,10.5486156 76.8910016,12.903298 C76.8910016,13.5947883 76.827728,14.033184 76.6514658,14.5755293 C76.1904723,15.9539902 75.0425081,16.9121336 73.4425896,17.2556189 C72.7465798,17.4047638 72.3262622,17.422842 69.1851792,17.422842 L66.0305375,17.422842 L66.0305375,9.62662866 L66.0305375,9.62662866 Z M72.7465798,15.5743485 C73.3747964,15.4432818 73.795114,15.2308632 74.1837948,14.8376629 C74.667386,14.3540717 74.8617264,13.8795195 74.9159609,13.0840798 C74.9521173,12.5462541 74.8526873,12.0310261 74.617671,11.5609935 C74.3058225,10.9327769 73.7363599,10.4989007 72.9138029,10.2729235 C72.5793567,10.178013 72.4528094,10.1734935 70.2924674,10.1554153 L68.0191368,10.1418567 L68.0191368,12.8987785 L68.0191368,15.6602199 L70.1794788,15.6602199 C72.1093241,15.6602199 72.3804967,15.6511808 72.7465798,15.5743485 L72.7465798,15.5743485 Z" id="Shape" fill="#FFFFFF"></path>
        <polygon id="Shape" fill="#FFFFFF" points="80.0411238 9.62662866 80.0411238 1.83041531 81.0354235 1.83041531 82.0297231 1.83041531 82.0297231 9.62662866 82.0297231 17.422842 81.0354235 17.422842 80.0411238 17.422842"></polygon>
        <path d="M85.7357492,9.62662866 L85.7357492,1.83041531 L88.393241,1.83041531 C89.8530537,1.83041531 91.2812296,1.85301303 91.5659609,1.87561075 C94.7477199,2.16034202 97.0436482,3.9771987 97.9204397,6.91038274 C98.3859528,8.46962541 98.4175896,10.4175489 98.0063111,12.0536238 C97.2379886,15.0726792 94.9420603,17.0251221 91.7377036,17.373127 C91.47557,17.4047638 90.1694218,17.422842 88.5152687,17.422842 L85.7357492,17.422842 L85.7357492,9.62662866 L85.7357492,9.62662866 Z M91.4303746,15.6150244 C94.4765472,15.2986564 96.3114821,13.0569625 96.3114821,9.65826547 C96.3114821,7.71938111 95.7781759,6.21889251 94.707044,5.14776059 C93.9974756,4.43819218 93.1749186,4.0088355 92.0540717,3.76929967 C91.624715,3.67438925 91.4348941,3.66535016 89.6587134,3.64727199 L87.7243485,3.62919381 L87.7243485,9.61307003 C87.7243485,12.9078176 87.7379072,15.6150244 87.7559853,15.6285831 C87.8011808,15.678298 90.9513029,15.6647394 91.4303746,15.6150244 L91.4303746,15.6150244 Z" id="Shape" fill="#FFFFFF"></path>
        <polygon id="Shape" fill="#FFFFFF" points="101.102199 9.62662866 101.102199 1.83041531 106.051099 1.83041531 111 1.83041531 111 2.7343241 111 3.6382329 107.045399 3.6382329 103.090798 3.6382329 103.090798 6.28216612 103.090798 8.92609935 106.683836 8.92609935 110.276873 8.92609935 110.276873 9.83000814 110.276873 10.7339169 106.683836 10.7339169 103.090798 10.7339169 103.090798 13.1970684 103.090798 15.6602199 107.045399 15.6602199 111 15.6602199 111 16.5415309 111 17.422842 106.051099 17.422842 101.102199 17.422842"></polygon>
    </g>
</svg>